<?xml version="1.0" standalone="no"?>
<!DOCTYPE svg PUBLIC "-//W3C//DTD SVG 20010904//EN"
 "http://www.w3.org/TR/2001/REC-SVG-20010904/DTD/svg10.dtd">
<svg version="1.0" xmlns="http://www.w3.org/2000/svg"
 width="978.000000pt" height="978.000000pt" viewBox="0 0 978.000000 978.000000"
 preserveAspectRatio="xMidYMid meet">
<metadata>
Created by potrace 1.11, written by Peter Selinger 2001-2013
</metadata>
<g transform="translate(0.000000,978.000000) scale(0.100000,-0.100000)"
fill="#000000" stroke="none">
<path d="M2757 8464 c-2 -2 -17 -4 -35 -6 -18 -1 -32 -5 -32 -8 0 -3 -12 -6
-27 -7 -48 -2 -77 -9 -102 -22 -17 -10 -21 -10 -16 -1 4 7 -2 6 -16 -3 -13 -8
-42 -20 -64 -27 -22 -7 -46 -17 -52 -23 -7 -5 -13 -7 -13 -3 0 3 -18 -5 -40
-19 -22 -14 -42 -25 -45 -25 -6 0 -114 -69 -132 -85 -6 -5 -26 -21 -44 -35
-43 -33 -136 -126 -174 -174 -16 -22 -36 -45 -42 -52 -7 -7 -13 -17 -13 -23 0
-6 -4 -11 -10 -11 -5 0 -10 -6 -10 -14 0 -8 -7 -21 -15 -30 -8 -8 -19 -25 -25
-38 -5 -13 -14 -30 -19 -38 -14 -24 -50 -104 -51 -115 -1 -5 -6 -16 -12 -22
-6 -7 -8 -13 -5 -13 3 0 -1 -16 -9 -35 -8 -19 -14 -37 -14 -40 0 -3 0 -6 -1
-7 -5 -18 -11 -48 -14 -68 -2 -14 -4 -25 -5 -25 -3 0 -10 -42 -16 -95 -9 -91
-10 -190 -2 -190 5 0 4 -8 -1 -19 -6 -10 -7 -21 -3 -25 3 -4 7 -24 8 -44 1
-20 3 -37 4 -37 1 0 3 -13 4 -30 1 -16 4 -34 7 -40 4 -5 12 -35 20 -65 7 -30
14 -57 14 -60 1 -3 7 -18 14 -35 7 -16 13 -32 13 -35 1 -10 92 -185 102 -197
29 -33 36 -43 31 -43 -5 0 17 -29 43 -55 6 -8 12 -16 12 -20 0 -12 27 -34 34
-28 3 4 6 1 6 -6 0 -7 7 -19 15 -28 8 -8 12 -19 9 -25 -4 -7 -2 -8 4 -4 16 9
135 -111 126 -126 -4 -7 -3 -8 4 -4 8 4 94 -75 224 -206 116 -117 215 -212
220 -210 4 1 7 -2 6 -6 -2 -4 13 -23 32 -42 19 -19 34 -38 32 -42 -1 -4 3 -8
8 -8 15 0 160 -147 160 -162 0 -6 2 -9 5 -6 8 7 93 -75 88 -84 -4 -8 13 -12
32 -8 5 1 7 -2 3 -6 -4 -4 18 -32 50 -63 31 -31 56 -59 54 -63 -1 -5 3 -8 8
-8 14 0 79 -68 72 -75 -3 -3 2 -5 11 -5 10 0 17 -3 17 -7 0 -5 -50 -57 -110
-117 -61 -60 -110 -113 -110 -119 0 -6 -3 -8 -6 -4 -3 3 -16 -5 -29 -18 -12
-14 -25 -22 -29 -18 -4 4 -4 -1 0 -11 4 -11 3 -17 -2 -14 -5 3 -20 -9 -34 -28
-14 -18 -28 -34 -32 -34 -10 0 -108 -101 -108 -112 0 -5 -4 -7 -9 -4 -5 3 -12
-1 -15 -10 -3 -9 -13 -14 -21 -11 -9 4 -12 1 -9 -7 7 -18 -76 -98 -93 -91 -8
2 -12 1 -8 -4 6 -11 -4 -41 -15 -41 -8 0 -190 -181 -190 -189 0 -3 -16 -17
-34 -31 -19 -14 -32 -28 -29 -32 2 -5 -3 -8 -11 -8 -8 0 -18 -9 -21 -21 -4
-11 -9 -18 -13 -15 -3 4 -14 -6 -24 -21 -10 -16 -18 -25 -18 -21 0 8 -202
-199 -245 -253 -32 -38 -60 -83 -57 -91 1 -5 -3 -8 -8 -8 -6 0 -20 -20 -32
-45 -12 -25 -26 -45 -31 -45 -4 0 -6 -3 -4 -7 3 -5 -6 -30 -18 -58 -13 -27
-21 -53 -19 -57 3 -5 1 -8 -4 -8 -11 0 -33 -70 -26 -82 3 -4 0 -8 -6 -8 -7 0
-10 -6 -7 -14 3 -8 3 -17 -1 -21 -4 -4 -8 -11 -8 -16 -1 -5 -3 -11 -4 -14 -1
-3 -4 -9 -5 -15 -1 -5 -3 -11 -4 -12 -3 -5 -11 -79 -15 -134 -1 -28 -6 -57
-11 -64 -5 -9 -4 -11 3 -6 9 5 9 0 2 -18 -5 -14 -6 -26 -1 -26 5 0 5 -16 1
-34 -4 -19 -5 -37 -2 -40 3 -3 7 -21 8 -38 2 -18 5 -44 8 -58 2 -14 7 -45 10
-69 4 -24 10 -49 14 -55 3 -6 8 -20 10 -31 5 -28 8 -36 19 -65 6 -14 9 -28 6
-32 -2 -5 1 -8 7 -8 6 0 9 -4 5 -9 -3 -5 2 -17 11 -25 8 -9 12 -16 9 -16 -4 0
3 -15 14 -33 11 -19 18 -37 14 -40 -3 -4 -1 -7 5 -7 7 0 12 -7 12 -15 0 -8 5
-15 11 -15 5 0 8 -4 5 -9 -3 -5 1 -14 9 -21 8 -7 15 -16 15 -21 0 -8 20 -36
48 -64 6 -8 12 -18 12 -24 0 -6 5 -11 10 -11 6 0 10 -5 10 -10 0 -15 127 -140
134 -133 3 4 6 1 6 -6 0 -7 7 -19 15 -27 8 -9 15 -13 15 -9 0 7 23 -12 48 -37
9 -10 22 -18 29 -18 6 0 17 -8 22 -17 6 -10 11 -14 11 -9 0 5 7 2 16 -5 20
-16 51 -35 84 -49 14 -6 37 -16 53 -23 15 -7 27 -15 27 -19 0 -4 9 -5 20 -3
11 2 20 0 20 -5 0 -4 14 -13 30 -19 17 -5 30 -7 30 -4 0 3 7 0 15 -7 8 -7 22
-10 30 -6 8 3 15 1 15 -3 0 -5 7 -12 16 -15 10 -4 13 -2 8 6 -5 7 -3 8 7 2 8
-5 17 -9 22 -10 4 -1 8 -2 10 -4 1 -1 18 -3 37 -5 19 -1 35 -3 35 -5 0 -7 257
-16 278 -10 20 7 33 5 46 -4 11 -8 13 -8 8 0 -4 7 0 14 8 18 8 3 15 0 15 -6 0
-7 4 -7 14 1 7 6 32 12 54 13 26 1 39 5 35 12 -3 6 -3 8 1 4 4 -3 22 -2 39 4
18 5 37 11 42 12 6 2 25 7 43 11 17 4 32 12 32 18 0 6 3 7 6 4 4 -3 16 -1 28
5 11 7 23 13 26 13 3 0 15 6 28 13 12 7 28 10 34 6 6 -4 8 -3 5 3 -7 10 20 28
36 25 4 -1 7 2 7 7 0 5 9 13 21 16 12 4 29 14 38 23 10 10 28 24 41 32 41 27
71 54 182 163 61 59 115 107 121 107 6 0 8 3 5 6 -7 7 48 64 62 64 5 0 10 4
10 9 0 5 48 57 106 116 82 82 109 104 116 93 7 -10 8 -9 4 5 -6 18 59 95 76
90 8 -3 12 13 8 32 -1 5 1 7 5 3 4 -3 63 49 132 118 69 68 130 121 136 117 6
-3 7 -1 3 5 -7 12 29 54 38 45 3 -4 6 -2 6 4 0 16 121 134 131 127 5 -3 6 2 3
10 -6 14 5 21 28 17 4 0 4 7 1 16 -4 11 -3 14 5 9 7 -4 12 -2 12 4 0 13 57 70
71 70 4 0 19 -11 33 -25 14 -14 22 -25 19 -25 -3 0 10 -12 28 -27 58 -48 99
-92 99 -108 0 -8 3 -14 8 -13 14 5 58 -34 44 -39 -6 -3 -9 -9 -6 -15 4 -6 9
-6 14 3 6 8 32 -13 89 -71 44 -45 78 -87 74 -93 -3 -5 -1 -7 5 -3 14 9 105
-81 96 -96 -4 -6 -3 -8 2 -5 14 8 35 -7 38 -29 2 -10 9 -18 16 -16 7 1 26 -13
42 -33 17 -19 35 -32 42 -28 6 3 8 3 4 -1 -4 -5 2 -17 12 -29 11 -11 17 -25
13 -30 -3 -6 -1 -7 6 -3 14 9 54 -32 45 -45 -3 -5 2 -6 10 -3 16 6 40 -28 28
-40 -3 -4 2 -4 12 0 13 5 17 2 14 -12 -2 -11 2 -18 10 -16 15 3 84 -63 75 -72
-4 -3 -1 -6 6 -6 16 0 71 -57 63 -66 -4 -4 2 -4 13 0 11 4 16 4 13 0 -4 -3 0
-13 8 -21 8 -8 11 -19 8 -25 -4 -6 -2 -8 4 -5 11 7 89 -62 85 -75 -2 -5 1 -8
6 -8 19 0 72 -60 65 -72 -6 -9 -3 -9 9 1 15 12 17 11 17 -3 0 -9 7 -16 15 -16
8 0 15 -4 15 -9 0 -11 119 -97 131 -93 5 1 9 -4 9 -11 0 -7 9 -13 21 -14 11
-1 28 -10 37 -20 10 -10 24 -19 32 -21 34 -7 80 -34 74 -44 -4 -7 0 -6 14 1
15 8 23 7 31 -3 6 -7 26 -17 44 -21 17 -4 35 -9 40 -10 4 -1 19 -3 33 -4 14 0
23 -4 21 -8 -3 -5 14 -9 36 -11 71 -5 77 -6 77 -12 0 -3 20 -5 45 -5 25 0 45
-4 45 -10 0 -5 5 -3 10 5 9 13 11 13 20 0 6 -9 10 -10 10 -3 0 8 9 9 29 3 16
-4 32 -6 35 -3 3 3 41 7 83 8 43 2 86 6 96 9 52 18 50 18 120 30 12 2 46 13
75 24 28 11 52 17 52 14 0 -4 4 -2 8 3 4 6 53 34 110 63 57 28 100 52 95 52
-4 1 3 7 17 14 14 8 29 12 34 9 5 -4 6 -1 2 5 -4 7 3 17 18 24 14 6 26 18 26
26 0 9 3 12 7 9 3 -4 17 5 30 19 12 14 23 22 23 19 0 -4 12 8 28 27 15 18 36
43 47 55 57 62 65 72 65 82 0 6 5 11 10 11 6 0 18 16 27 35 9 19 20 32 25 29
5 -3 8 -2 7 3 -4 21 2 34 13 27 7 -5 8 -3 3 6 -5 8 -1 18 10 27 14 9 15 13 4
13 -9 0 -10 3 -3 8 13 9 65 121 68 145 1 4 8 12 16 17 11 7 11 10 2 10 -9 0
-10 5 -3 19 6 10 7 21 4 25 -3 3 -1 6 5 6 6 0 11 8 12 17 2 51 6 73 10 73 5 0
10 24 12 60 1 8 6 18 12 22 7 5 6 8 -3 8 -9 0 -10 4 -4 13 14 17 5 347 -8 347
-4 0 -6 6 -6 13 2 28 -26 137 -36 137 -6 0 -8 3 -4 6 6 6 -9 51 -39 119 -10
22 -19 46 -20 54 -2 8 -7 17 -11 20 -5 3 -24 33 -42 66 -19 33 -41 65 -50 72
-9 7 -12 13 -8 13 4 0 3 6 -3 13 -6 6 -19 23 -30 35 -10 13 -24 21 -29 17 -7
-3 -8 0 -5 9 3 9 1 16 -4 16 -6 0 -13 9 -17 19 -3 11 -15 23 -26 26 -10 4 -19
11 -19 16 0 9 -17 26 -99 102 -23 21 -41 42 -41 48 0 6 -5 7 -12 3 -8 -5 -9
-2 -5 10 4 9 3 15 -2 12 -5 -3 -23 10 -40 29 -17 19 -36 35 -42 35 -7 0 -9 3
-6 7 4 3 -2 13 -13 20 -11 8 -17 19 -14 25 4 6 3 8 -2 5 -13 -8 -96 77 -86 88
4 4 2 5 -5 1 -6 -3 -18 3 -26 14 -7 11 -16 18 -18 16 -2 -2 -15 11 -29 30 -14
18 -31 34 -38 34 -7 0 -12 3 -10 8 4 9 -200 211 -207 204 -3 -3 -5 1 -5 9 0 8
-14 25 -30 38 -16 13 -27 28 -23 34 3 5 2 7 -4 4 -6 -4 -33 18 -62 48 -28 30
-56 55 -63 55 -6 0 -9 2 -6 5 7 7 -101 115 -115 115 -6 0 -7 3 -4 6 7 7 -30
44 -45 44 -4 0 -8 5 -8 11 0 7 -9 20 -20 29 -20 17 -19 19 55 94 44 44 80 74
87 70 6 -4 8 -3 4 4 -10 16 149 173 163 159 7 -7 8 -3 4 12 -4 15 -1 21 11 21
9 0 16 5 16 10 0 6 66 76 148 157 81 80 146 150 144 156 -2 6 5 4 14 -4 11 -8
15 -9 11 -2 -8 13 67 96 77 85 3 -3 6 0 6 7 0 14 60 77 60 64 1 -4 8 5 16 20
8 16 20 25 26 21 6 -4 8 -3 5 3 -4 6 9 23 28 38 18 16 31 33 29 37 -3 5 -1 7
4 6 10 -3 302 289 302 302 0 4 11 20 25 36 14 16 25 33 25 37 0 5 5 5 12 1 6
-4 8 -3 4 4 -3 6 1 17 9 25 8 9 15 22 15 31 0 8 8 20 18 25 9 6 14 11 10 11
-4 0 6 25 23 56 16 31 29 63 29 71 0 8 4 12 9 8 6 -3 8 4 6 15 -2 11 1 20 7
20 6 0 9 3 5 6 -3 3 1 24 9 47 13 38 23 76 29 122 2 11 4 20 5 20 2 0 10 62
13 105 2 19 6 41 10 48 5 7 3 12 -4 12 -8 0 -8 4 1 15 7 8 9 15 4 15 -5 0 -9
18 -9 40 0 22 4 40 8 40 5 0 5 6 0 13 -4 6 -8 23 -9 37 -4 56 -14 117 -23 148
-5 17 -7 32 -4 32 3 0 1 6 -4 13 -5 6 -9 21 -9 32 1 11 -3 23 -7 26 -5 3 -9
12 -10 20 -2 8 -6 20 -10 27 -5 6 -6 16 -3 21 4 5 3 11 -2 13 -4 1 -26 41 -50
88 -48 97 -63 122 -77 132 -5 4 -6 8 -1 8 5 0 -1 9 -14 20 -13 11 -20 20 -16
20 7 0 -3 12 -94 109 -33 36 -60 69 -60 73 0 4 -4 7 -9 5 -5 -1 -22 12 -39 30
-17 17 -33 28 -37 25 -4 -4 -11 1 -16 11 -6 9 -16 17 -24 17 -7 0 -15 3 -17 8
-5 11 -59 47 -95 63 -18 7 -33 17 -33 21 0 5 -8 8 -18 8 -10 0 -22 3 -26 8 -4
4 -11 7 -14 8 -4 0 -27 9 -52 20 -25 10 -48 18 -52 16 -5 -1 -8 3 -8 9 0 5 -5
7 -10 4 -6 -4 -16 -2 -23 3 -7 5 -28 12 -47 16 -67 12 -95 17 -130 22 -55 9
-314 8 -336 0 -10 -5 -32 -10 -49 -12 -31 -3 -70 -11 -70 -14 0 -1 -8 -3 -17
-6 -10 -2 -24 -5 -30 -7 -33 -8 -67 -20 -104 -37 -23 -11 -54 -22 -68 -26 -14
-3 -26 -10 -26 -14 0 -9 -31 -22 -41 -17 -3 1 -13 -6 -23 -16 -10 -9 -22 -14
-28 -11 -7 4 -8 2 -4 -4 4 -7 -3 -14 -19 -18 -13 -3 -22 -10 -19 -15 3 -5 -1
-9 -8 -9 -19 0 -68 -42 -180 -150 -54 -52 -103 -96 -108 -98 -6 -2 -10 -9 -11
-15 0 -7 -27 -34 -59 -62 -32 -27 -59 -56 -59 -62 -1 -7 -4 -13 -8 -13 -9 0
-126 -110 -118 -110 3 0 -14 -17 -37 -37 -23 -21 -45 -37 -50 -35 -5 1 -7 -2
-3 -8 3 -5 1 -10 -6 -10 -7 0 -10 -3 -6 -6 12 -12 -17 -33 -31 -22 -9 8 -11 7
-7 -3 3 -9 -62 -80 -169 -186 -95 -95 -171 -175 -168 -178 3 -3 -1 -5 -10 -5
-8 0 -21 -12 -28 -26 -9 -16 -20 -24 -31 -21 -11 3 -16 0 -13 -7 2 -6 -16 -31
-41 -54 -25 -23 -45 -46 -45 -52 0 -6 -4 -9 -9 -5 -5 3 -12 -4 -16 -15 -4 -11
-10 -18 -15 -15 -5 3 -11 -4 -15 -15 -3 -11 -10 -20 -15 -20 -5 0 -18 -10 -30
-22 l-20 -22 -41 40 c-39 37 -64 63 -106 109 -10 11 -37 37 -61 58 -23 20 -39
37 -35 37 5 0 2 4 -6 9 -19 12 -239 230 -236 233 2 2 -12 14 -31 28 -18 14
-36 32 -39 40 -3 8 -18 24 -34 35 -17 11 -35 30 -42 42 -7 12 -15 20 -19 18
-4 -2 -12 6 -19 18 -7 12 -28 33 -46 47 -19 14 -37 32 -40 41 -3 9 -15 21 -28
28 -12 7 -31 25 -42 41 -11 17 -26 30 -33 30 -7 0 -11 4 -8 8 3 5 -6 15 -19
22 -14 7 -27 21 -30 30 -3 9 -17 23 -30 30 -14 7 -23 15 -21 17 2 2 -17 24
-43 48 -25 24 -85 81 -132 128 -91 90 -184 161 -259 199 -25 13 -47 25 -50 28
-12 13 -132 60 -141 54 -5 -3 -9 0 -9 5 0 6 -8 11 -18 11 -10 0 -23 5 -30 12
-7 7 -12 9 -12 6 0 -4 -23 0 -52 8 -28 9 -68 17 -87 19 -20 2 -36 4 -36 5 0 4
-294 8 -298 4z"/>
<path d="M2076 6302 c-3 -5 1 -9 9 -9 8 0 12 4 9 9 -3 4 -7 8 -9 8 -2 0 -6 -4
-9 -8z"/>
<path d="M2075 6221 c-3 -5 -2 -12 3 -15 5 -3 9 1 9 9 0 17 -3 19 -12 6z"/>
<path d="M7630 6196 c0 -2 8 -10 18 -17 15 -13 16 -12 3 4 -13 16 -21 21 -21
13z"/>
<path d="M2150 6106 c0 -2 7 -7 16 -10 8 -3 12 -2 9 4 -6 10 -25 14 -25 6z"/>
<path d="M2076 6047 c3 -10 9 -15 12 -12 3 3 0 11 -7 18 -10 9 -11 8 -5 -6z"/>
<path d="M7393 5945 c0 -8 4 -12 9 -9 5 3 6 10 3 15 -9 13 -12 11 -12 -6z"/>
<path d="M2595 5701 c-3 -5 -2 -12 3 -15 5 -3 9 1 9 9 0 17 -3 19 -12 6z"/>
<path d="M2710 5701 c0 -6 4 -13 10 -16 6 -3 7 1 4 9 -7 18 -14 21 -14 7z"/>
<path d="M7149 5463 c-13 -16 -12 -17 4 -4 9 7 17 15 17 17 0 8 -8 3 -21 -13z"/>
<path d="M2916 5422 c-3 -5 1 -9 9 -9 8 0 12 4 9 9 -3 4 -7 8 -9 8 -2 0 -6 -4
-9 -8z"/>
<path d="M6830 5340 c0 -5 5 -10 11 -10 5 0 7 5 4 10 -3 6 -8 10 -11 10 -2 0
-4 -4 -4 -10z"/>
<path d="M3110 5280 c0 -5 5 -10 11 -10 5 0 7 5 4 10 -3 6 -8 10 -11 10 -2 0
-4 -4 -4 -10z"/>
<path d="M2865 5220 c-3 -6 1 -7 9 -4 18 7 21 14 7 14 -6 0 -13 -4 -16 -10z"/>
<path d="M6746 5222 c-3 -5 1 -9 9 -9 8 0 12 4 9 9 -3 4 -7 8 -9 8 -2 0 -6 -4
-9 -8z"/>
<path d="M2670 5179 c0 -5 5 -7 10 -4 6 3 10 8 10 11 0 2 -4 4 -10 4 -5 0 -10
-5 -10 -11z"/>
<path d="M6735 5180 c-3 -5 -1 -10 4 -10 6 0 11 5 11 10 0 6 -2 10 -4 10 -3 0
-8 -4 -11 -10z"/>
<path d="M7386 4942 c-3 -5 1 -9 9 -9 8 0 12 4 9 9 -3 4 -7 8 -9 8 -2 0 -6 -4
-9 -8z"/>
<path d="M7393 4615 c0 -8 4 -12 9 -9 5 3 6 10 3 15 -9 13 -12 11 -12 -6z"/>
<path d="M4873 3525 c0 -8 4 -12 9 -9 5 3 6 10 3 15 -9 13 -12 11 -12 -6z"/>
<path d="M4830 3461 c0 -6 4 -13 10 -16 6 -3 7 1 4 9 -7 18 -14 21 -14 7z"/>
<path d="M4750 3397 c0 -2 6 -10 14 -16 11 -9 16 -9 22 1 4 7 4 10 -1 6 -4 -4
-14 -3 -22 3 -7 6 -13 9 -13 6z"/>
<path d="M5035 3380 c3 -5 8 -10 11 -10 2 0 4 5 4 10 0 6 -5 10 -11 10 -5 0
-7 -4 -4 -10z"/>
<path d="M5020 3366 c0 -2 8 -10 18 -17 15 -13 16 -12 3 4 -13 16 -21 21 -21
13z"/>
<path d="M4695 3340 c3 -5 8 -10 11 -10 2 0 4 5 4 10 0 6 -5 10 -11 10 -5 0
-7 -4 -4 -10z"/>
<path d="M4715 3269 c-4 -6 -5 -12 -2 -15 2 -3 7 2 10 11 7 17 1 20 -8 4z"/>
<path d="M4794 3266 c1 -8 5 -18 8 -22 4 -3 5 1 4 10 -1 8 -5 18 -8 22 -4 3
-5 -1 -4 -10z"/>
<path d="M4875 3269 c-4 -6 -5 -12 -2 -15 2 -3 7 2 10 11 7 17 1 20 -8 4z"/>
<path d="M4953 3265 c0 -8 4 -15 9 -15 4 0 8 4 8 9 0 6 -4 12 -8 15 -5 3 -9
-1 -9 -9z"/>
<path d="M4666 3262 c-3 -5 1 -9 9 -9 8 0 12 4 9 9 -3 4 -7 8 -9 8 -2 0 -6 -4
-9 -8z"/>
<path d="M4990 3259 c0 -5 5 -7 10 -4 6 3 10 8 10 11 0 2 -4 4 -10 4 -5 0 -10
-5 -10 -11z"/>
<path d="M4627 3219 c7 -7 15 -10 18 -7 3 3 -2 9 -12 12 -14 6 -15 5 -6 -5z"/>
<path d="M4753 3215 c0 -8 4 -12 9 -9 5 3 6 10 3 15 -9 13 -12 11 -12 -6z"/>
<path d="M4833 3215 c0 -8 4 -12 9 -9 5 3 6 10 3 15 -9 13 -12 11 -12 -6z"/>
<path d="M5215 3211 c-3 -5 -2 -12 3 -15 5 -3 9 1 9 9 0 17 -3 19 -12 6z"/>
<path d="M4975 3200 c3 -5 8 -10 11 -10 2 0 4 5 4 10 0 6 -5 10 -11 10 -5 0
-7 -4 -4 -10z"/>
<path d="M5095 3200 c3 -5 8 -10 11 -10 2 0 4 5 4 10 0 6 -5 10 -11 10 -5 0
-7 -4 -4 -10z"/>
<path d="M5130 3200 c0 -5 5 -10 11 -10 5 0 7 5 4 10 -3 6 -8 10 -11 10 -2 0
-4 -4 -4 -10z"/>
<path d="M4733 3171 c0 -11 5 -18 9 -15 4 3 5 11 1 19 -7 21 -12 19 -10 -4z"/>
<path d="M4876 3182 c-3 -5 1 -9 9 -9 8 0 12 4 9 9 -3 4 -7 8 -9 8 -2 0 -6 -4
-9 -8z"/>
<path d="M5026 3178 c3 -5 10 -6 15 -3 13 9 11 12 -6 12 -8 0 -12 -4 -9 -9z"/>
<path d="M4573 3155 c0 -8 4 -12 9 -9 5 3 6 10 3 15 -9 13 -12 11 -12 -6z"/>
<path d="M4695 3160 c-3 -5 -1 -10 4 -10 6 0 11 5 11 10 0 6 -2 10 -4 10 -3 0
-8 -4 -11 -10z"/>
<path d="M4810 3159 c0 -5 5 -7 10 -4 6 3 10 8 10 11 0 2 -4 4 -10 4 -5 0 -10
-5 -10 -11z"/>
<path d="M4930 3159 c0 -5 5 -7 10 -4 6 3 10 8 10 11 0 2 -4 4 -10 4 -5 0 -10
-5 -10 -11z"/>
<path d="M5235 3159 c-3 -4 2 -6 10 -5 21 3 28 13 10 13 -9 0 -18 -4 -20 -8z"/>
<path d="M5146 3138 c3 -5 10 -6 15 -3 13 9 11 12 -6 12 -8 0 -12 -4 -9 -9z"/>
<path d="M4535 3121 c-3 -5 -2 -12 3 -15 5 -3 9 1 9 9 0 17 -3 19 -12 6z"/>
<path d="M4595 3119 c-3 -4 2 -6 10 -5 21 3 28 13 10 13 -9 0 -18 -4 -20 -8z"/>
<path d="M4775 3121 c-3 -5 -2 -12 3 -15 5 -3 9 1 9 9 0 17 -3 19 -12 6z"/>
<path d="M4853 3109 c-2 -23 3 -25 10 -4 4 8 3 16 -1 19 -4 3 -9 -4 -9 -15z"/>
<path d="M4915 3120 c-3 -5 -1 -10 4 -10 6 0 11 5 11 10 0 6 -2 10 -4 10 -3 0
-8 -4 -11 -10z"/>
<path d="M5174 3116 c1 -8 5 -18 8 -22 4 -3 5 1 4 10 -1 8 -5 18 -8 22 -4 3
-5 -1 -4 -10z"/>
<path d="M5234 3122 c4 -3 14 -7 22 -8 9 -1 13 0 10 4 -4 3 -14 7 -22 8 -9 1
-13 0 -10 -4z"/>
<path d="M5313 3085 c0 -8 4 -12 9 -9 5 3 6 10 3 15 -9 13 -12 11 -12 -6z"/>
<path d="M5110 3080 c0 -5 5 -10 10 -10 6 0 10 5 10 10 0 6 -4 10 -10 10 -5 0
-10 -4 -10 -10z"/>
<path d="M4895 3060 c3 -5 8 -10 11 -10 2 0 4 5 4 10 0 6 -5 10 -11 10 -5 0
-7 -4 -4 -10z"/>
<path d="M5250 3060 c0 -5 5 -10 11 -10 5 0 7 5 4 10 -3 6 -8 10 -11 10 -2 0
-4 -4 -4 -10z"/>
<path d="M4430 3041 c0 -6 4 -13 10 -16 6 -3 7 1 4 9 -7 18 -14 21 -14 7z"/>
<path d="M5236 2973 c-6 -14 -5 -15 5 -6 7 7 10 15 7 18 -3 3 -9 -2 -12 -12z"/>
<path d="M5486 2898 c3 -5 10 -6 15 -3 13 9 11 12 -6 12 -8 0 -12 -4 -9 -9z"/>
<path d="M5020 2786 c0 -2 8 -10 18 -17 15 -13 16 -12 3 4 -13 16 -21 21 -21
13z"/>
<path d="M5155 2700 c3 -5 8 -10 11 -10 2 0 4 5 4 10 0 6 -5 10 -11 10 -5 0
-7 -4 -4 -10z"/>
<path d="M4275 2541 c-3 -5 -2 -12 3 -15 5 -3 9 1 9 9 0 17 -3 19 -12 6z"/>
<path d="M2135 2261 c-3 -5 -2 -12 3 -15 5 -3 9 1 9 9 0 17 -3 19 -12 6z"/>
<path d="M2990 2036 c0 -2 8 -10 18 -17 15 -13 16 -12 3 4 -13 16 -21 21 -21
13z"/>
<path d="M5710 2020 c0 -5 5 -10 11 -10 5 0 7 5 4 10 -3 6 -8 10 -11 10 -2 0
-4 -4 -4 -10z"/>
<path d="M6870 1841 c0 -6 4 -13 10 -16 6 -3 7 1 4 9 -7 18 -14 21 -14 7z"/>
<path d="M7420 1826 c0 -2 8 -10 18 -17 15 -13 16 -12 3 4 -13 16 -21 21 -21
13z"/>
<path d="M2635 1789 c-4 -6 -5 -12 -2 -15 2 -3 7 2 10 11 7 17 1 20 -8 4z"/>
<path d="M3316 1667 c3 -10 9 -15 12 -12 3 3 0 11 -7 18 -10 9 -11 8 -5 -6z"/>
<path d="M2636 1613 c-6 -14 -5 -15 5 -6 7 7 10 15 7 18 -3 3 -9 -2 -12 -12z"/>
</g>
</svg>
