<svg width="668" height="485" viewBox="0 0 668 485" fill="none" xmlns="http://www.w3.org/2000/svg">
<g opacity="0.95" filter="url(#filter0_d)">
<path d="M91.7483 298.488L114.297 258.437L128.332 245.825C129.162 245.079 130.111 244.477 131.14 244.044L496.702 90.3417C535.905 73.8584 581.047 92.2811 597.523 131.487C613.998 170.688 595.574 215.822 556.373 232.297L155.34 400.83C124.791 413.668 89.6185 399.311 76.7802 368.762L75.618 365.996L73.4198 359.231C73.0757 358.172 72.9109 357.063 72.9321 355.95L73.142 344.957C73.166 343.702 73.4263 342.461 73.9094 341.302L91.7483 298.488Z" fill="#E3B505"/>
</g>
<path d="M130.69 244.022C117.572 251.636 110.021 261.818 110.021 261.818C94.2536 283.169 79.7312 317.357 79.7312 317.357C73.1863 329.947 71.2458 341.828 71.9313 350.417C71.9313 350.417 71.8555 356.021 74.0279 361.149C72.6521 357.875 74.2743 349.993 74.2743 349.993C76.1759 338.811 86.0925 334.994 86.0925 334.994L111.003 324.525C125.318 318.509 129.968 304.824 129.968 304.824C136.59 291.378 129.87 275.345 129.87 275.345C129.482 274.423 129.095 273.5 128.707 272.577C127.231 269.065 125.768 265.583 124.292 262.071C123.517 260.226 122.554 258.477 122.539 256.4C122.529 254.128 123.469 251.947 124.838 250.164C126.326 248.33 128.671 245.466 130.69 244.022Z" fill="#C69E05"/>
<defs>
<filter id="filter0_d" x="0.36731" y="40.5071" width="666.985" height="443.569" filterUnits="userSpaceOnUse" color-interpolation-filters="sRGB">
<feFlood flood-opacity="0" result="BackgroundImageFix"/>
<feColorMatrix in="SourceAlpha" type="matrix" values="0 0 0 0 0 0 0 0 0 0 0 0 0 0 0 0 0 0 127 0"/>
<feOffset dy="20"/>
<feGaussianBlur stdDeviation="20"/>
<feColorMatrix type="matrix" values="0 0 0 0 0.403922 0 0 0 0 0.0392157 0 0 0 0 0.290196 0 0 0 0.4 0"/>
<feBlend mode="normal" in2="BackgroundImageFix" result="effect1_dropShadow"/>
<feBlend mode="normal" in="SourceGraphic" in2="effect1_dropShadow" result="shape"/>
</filter>
</defs>
</svg>
