<svg width="1350" height="486" viewBox="0 0 1350 486" fill="none" xmlns="http://www.w3.org/2000/svg">
<g filter="url(#filter0_d)">
<path d="M124.171 112.958C125.695 111.991 127.081 110.822 128.291 109.483L192.443 38.5005L222.675 26.6864C223.835 26.2331 225.07 26.0005 226.315 26.0005H1367V426H60C48.9543 426 40 417.046 40 406V185.5L52.7532 159.984C53.5655 158.359 54.8053 156.986 56.3393 156.012L124.171 112.958Z" fill="#670A4A"/>
</g>
<path d="M226.031 26.6779C197.359 30.3695 176.573 42.6851 176.573 42.6851C133.104 68.5574 82.3443 117.902 82.3443 117.902C61.5481 135.191 49.3656 154.634 44.2281 170.231C44.2281 170.231 39.9571 180.021 39.9878 190.635C39.9878 183.867 48.6581 171.216 48.6581 171.216C60.256 152.973 80.4985 153.588 80.4985 153.588L131.997 153.588C161.591 153.588 179.865 132.976 179.865 132.976C201.43 114.241 201.461 81.1089 201.461 81.1089C201.461 79.2015 201.461 77.2942 201.461 75.3869C201.461 68.1267 201.461 60.928 201.461 53.6678C201.461 49.8531 201.061 46.0691 202.569 42.4082C204.23 38.409 207.491 35.2711 211.213 33.1484C215.182 31.0257 221.417 27.7238 226.031 26.6779Z" fill="#BA4E8E"/>
<defs>
<filter id="filter0_d" x="0" y="6.00049" width="1407" height="480" filterUnits="userSpaceOnUse" color-interpolation-filters="sRGB">
<feFlood flood-opacity="0" result="BackgroundImageFix"/>
<feColorMatrix in="SourceAlpha" type="matrix" values="0 0 0 0 0 0 0 0 0 0 0 0 0 0 0 0 0 0 127 0"/>
<feOffset dy="20"/>
<feGaussianBlur stdDeviation="20"/>
<feColorMatrix type="matrix" values="0 0 0 0 0.403922 0 0 0 0 0.0392157 0 0 0 0 0.290196 0 0 0 0.4 0"/>
<feBlend mode="normal" in2="BackgroundImageFix" result="effect1_dropShadow"/>
<feBlend mode="normal" in="SourceGraphic" in2="effect1_dropShadow" result="shape"/>
</filter>
</defs>
</svg>
