<svg width="1920" height="690" viewBox="0 0 1920 690" fill="none" xmlns="http://www.w3.org/2000/svg" style="">
<g filter="url(#filter0_di)">
<path d="M0 644C32.5181 566.611 277 313 684.21 450.108C947.628 538.801 1174.03 309.056 1245.61 226.892C1299.39 160.444 1521 -44.5 1920 32" stroke="#E3B505" stroke-width="10" stroke-linecap="round" class="TvWJOpNn_0"></path>
</g>
<path opacity="0.3" d="M684.21 450.108C406.885 431.487 272.518 581.61 240 659H1920V33.5C1508.5 -40 1299.39 160.444 1245.61 226.892C1174.03 309.056 961.534 468.729 684.21 450.108Z" fill="url(#paint0_linear)" class="TvWJOpNn_1"></path>
<path d="M1564.34 324.446L1497.57 276.635C1492.21 272.795 1485.29 271.846 1479.1 274.097L334 690C705.451 569.722 1072.78 464.949 1451.08 368.641C1456.45 367.275 1462.15 368.196 1466.81 371.185L1553.07 426.491C1559.72 430.754 1568.25 430.705 1574.85 426.365L1737.63 319.333C1743.18 315.685 1750.17 315.028 1756.3 317.579L1919.5 385.5V262.5L1755.67 211.836C1749.87 210.043 1743.58 210.98 1738.55 214.382L1575.77 324.596C1572.3 326.942 1567.74 326.882 1564.34 324.446Z" fill="#2A1622" class="TvWJOpNn_2"></path>
<defs>
<filter id="filter0_di" x="-25.0012" y="0.14328" width="1970" height="678.858" filterUnits="userSpaceOnUse" color-interpolation-filters="sRGB">
<feFlood flood-opacity="0" result="BackgroundImageFix"></feFlood>
<feColorMatrix in="SourceAlpha" type="matrix" values="0 0 0 0 0 0 0 0 0 0 0 0 0 0 0 0 0 0 127 0"></feColorMatrix>
<feOffset dy="10"></feOffset>
<feGaussianBlur stdDeviation="10"></feGaussianBlur>
<feColorMatrix type="matrix" values="0 0 0 0 0.890196 0 0 0 0 0.709804 0 0 0 0 0.0196078 0 0 0 0.2 0"></feColorMatrix>
<feBlend mode="normal" in2="BackgroundImageFix" result="effect1_dropShadow"></feBlend>
<feBlend mode="normal" in="SourceGraphic" in2="effect1_dropShadow" result="shape"></feBlend>
<feColorMatrix in="SourceAlpha" type="matrix" values="0 0 0 0 0 0 0 0 0 0 0 0 0 0 0 0 0 0 127 0" result="hardAlpha"></feColorMatrix>
<feOffset dy="4"></feOffset>
<feGaussianBlur stdDeviation="2"></feGaussianBlur>
<feComposite in2="hardAlpha" operator="arithmetic" k2="-1" k3="1"></feComposite>
<feColorMatrix type="matrix" values="0 0 0 0 0 0 0 0 0 0 0 0 0 0 0 0 0 0 0.25 0"></feColorMatrix>
<feBlend mode="normal" in2="shape" result="effect2_innerShadow"></feBlend>
</filter>
<linearGradient id="paint0_linear" x1="1486.86" y1="91" x2="1297.26" y2="466.89" gradientUnits="userSpaceOnUse">
<stop stop-color="#E3B505"></stop>
<stop offset="1" stop-color="#E3B505" stop-opacity="0"></stop>
</linearGradient>
</defs>
<style data-made-with="vivus-instant">.TvWJOpNn_0{stroke-dasharray:2145 2147;stroke-dashoffset:2146;animation:TvWJOpNn_draw 1333ms linear 0ms forwards;}.TvWJOpNn_1{stroke-dasharray:4185 4187;stroke-dashoffset:4186;animation:TvWJOpNn_draw 1333ms linear 333ms forwards;}.TvWJOpNn_2{stroke-dasharray:3537 3539;stroke-dashoffset:3538;animation:TvWJOpNn_draw 1333ms linear 666ms forwards;}@keyframes TvWJOpNn_draw{100%{stroke-dashoffset:0;}}@keyframes TvWJOpNn_fade{0%{stroke-opacity:1;}93.54838709677419%{stroke-opacity:1;}100%{stroke-opacity:0;}}</style></svg>
