<svg width="489" height="488" viewBox="0 0 489 488" fill="none" xmlns="http://www.w3.org/2000/svg">
<g opacity="0.95" filter="url(#filter0_d)">
<path fill-rule="evenodd" clip-rule="evenodd" d="M103.573 365.574C80.1419 342.142 80.1419 304.152 103.573 280.721L301.563 82.7309C324.995 59.2995 362.985 59.2995 386.416 82.7309C409.848 106.162 409.848 144.152 386.416 167.584L188.426 365.574C164.995 389.005 127.005 389.005 103.573 365.574Z" fill="#E3B505"/>
</g>
<g opacity="0.95" filter="url(#filter1_d)">
<path fill-rule="evenodd" clip-rule="evenodd" d="M102.427 82.5736C125.858 59.1422 163.848 59.1422 187.279 82.5736L385.269 280.564C408.701 303.995 408.701 341.985 385.269 365.416C361.838 388.848 323.848 388.848 300.417 365.416L102.427 167.426C78.9952 143.995 78.9952 106.005 102.427 82.5736Z" fill="#E3B505"/>
</g>
<defs>
<filter id="filter0_d" x="1.14697" y="0.304443" width="487.696" height="487.696" filterUnits="userSpaceOnUse" color-interpolation-filters="sRGB">
<feFlood flood-opacity="0" result="BackgroundImageFix"/>
<feColorMatrix in="SourceAlpha" type="matrix" values="0 0 0 0 0 0 0 0 0 0 0 0 0 0 0 0 0 0 127 0"/>
<feOffset dy="20"/>
<feGaussianBlur stdDeviation="30"/>
<feColorMatrix type="matrix" values="0 0 0 0 0.666667 0 0 0 0 0.0861111 0 0 0 0 0.485633 0 0 0 0.2 0"/>
<feBlend mode="normal" in2="BackgroundImageFix" result="effect1_dropShadow"/>
<feBlend mode="normal" in="SourceGraphic" in2="effect1_dropShadow" result="shape"/>
</filter>
<filter id="filter1_d" x="0" y="0.147217" width="487.696" height="487.696" filterUnits="userSpaceOnUse" color-interpolation-filters="sRGB">
<feFlood flood-opacity="0" result="BackgroundImageFix"/>
<feColorMatrix in="SourceAlpha" type="matrix" values="0 0 0 0 0 0 0 0 0 0 0 0 0 0 0 0 0 0 127 0"/>
<feOffset dy="20"/>
<feGaussianBlur stdDeviation="30"/>
<feColorMatrix type="matrix" values="0 0 0 0 0.666667 0 0 0 0 0.0861111 0 0 0 0 0.485633 0 0 0 0.2 0"/>
<feBlend mode="normal" in2="BackgroundImageFix" result="effect1_dropShadow"/>
<feBlend mode="normal" in="SourceGraphic" in2="effect1_dropShadow" result="shape"/>
</filter>
</defs>
</svg>
