<svg width="300" height="260" viewBox="0 0 300 260" fill="none" xmlns="http://www.w3.org/2000/svg">
<g clip-path="url(#clip0)">
<path opacity="0.1" d="M60.0742 167.733L173.385 107.584L272.043 169.2L166.059 229.349L60.0742 167.733Z" fill="#E3B505"/>
<path d="M166.303 235.539C162.933 235.539 159.573 234.669 156.574 232.938L53.5296 173.376C51.9276 172.447 50.9703 170.794 50.9703 168.945C50.9703 167.097 51.9276 165.434 53.5296 164.515L166.303 99.3191L166.43 99.3876L279.077 164.505C280.679 165.434 281.636 167.087 281.636 168.935C281.636 170.784 280.679 172.447 279.077 173.366L176.032 232.928C173.033 234.679 169.663 235.539 166.303 235.539ZM156.818 232.507C162.669 235.891 169.937 235.891 175.778 232.507L278.823 172.945C280.268 172.114 281.128 170.618 281.128 168.945C281.128 167.273 280.268 165.776 278.823 164.945L166.293 99.8961L53.7738 164.935C52.3281 165.767 51.4685 167.263 51.4685 168.935C51.4685 170.608 52.3281 172.104 53.7738 172.936L156.818 232.507Z" fill="#E3B505"/>
<path d="M192.912 121.139L181.16 127.936L43.7907 48.4516L55.5516 41.6348L192.912 121.139Z" fill="black"/>
<g filter="url(#filter0_d)">
<path d="M192.912 118.107L181.16 124.904L43.7907 45.4296L55.5906 38.6714L192.912 118.107Z" fill="#E3B505"/>
</g>
<path d="M110.439 176.036C110.244 170.5 112.109 164.906 116.026 160.583C111.66 164.994 111.084 170.891 111.289 176.73C115.606 176.809 118.429 176.848 122.747 176.603C122.737 176.378 122.727 176.153 122.727 175.938C118.634 176.143 114.532 176.104 110.439 176.036Z" fill="url(#paint0_linear)"/>
<path d="M30.6624 144.179C29.3144 144.179 27.9566 143.886 26.931 143.289L7.11136 131.836C6.0857 131.24 5.51915 130.438 5.51915 129.577C5.51915 128.716 6.0857 127.914 7.11136 127.318L26.931 115.865C28.9921 114.672 32.3425 114.672 34.4036 115.865L54.2232 127.318C55.2489 127.914 55.8155 128.716 55.8155 129.577C55.8155 130.438 55.2489 131.24 54.2232 131.836L34.3939 143.289C33.3682 143.876 32.0104 144.179 30.6624 144.179ZM27.097 142.986C29.0604 144.12 32.2546 144.12 34.218 142.986L54.0376 131.533C54.9559 131.005 55.4638 130.311 55.4638 129.577C55.4638 128.843 54.9559 128.149 54.0376 127.621L34.218 116.168C32.2546 115.034 29.0604 115.034 27.097 116.168L7.27742 127.621C6.35922 128.149 5.85127 128.843 5.85127 129.577C5.85127 130.311 6.35922 131.005 7.27742 131.533L27.097 142.986Z" fill="#E3B505"/>
<path opacity="0.4" d="M56.4211 125.176V118.379L55.1805 117.684C54.8289 119.806 52.338 121.205 50.2476 121.498L36.0447 129.812L29.8517 132.051L10.0711 121.831L10.5302 121.567C8.84034 120.775 7.9319 118.965 7.0137 117.322L5.68522 118.114L4.894 118.339V125.244C4.894 126.125 5.47033 127.005 6.63274 127.68L26.4524 139.132C28.7772 140.472 32.5477 140.472 34.8725 139.132L54.6921 127.68C55.835 127.024 56.4113 126.154 56.4309 125.293C56.4211 125.254 56.4211 125.215 56.4211 125.176Z" fill="#E3B505"/>
<path d="M56.4211 119.132V114.633L55.1805 113.938C54.8289 116.061 52.338 117.459 50.2476 117.753L36.0447 126.066L29.8517 128.306L10.0711 118.085L10.5302 117.821C8.84034 117.029 7.9319 115.22 7.0137 113.576L5.68522 114.369L4.894 114.594V119.2C4.894 120.08 5.47033 120.961 6.63274 121.635L26.4524 133.088C28.7772 134.428 32.5477 134.428 34.8725 133.088L54.6921 121.635C55.835 120.98 56.4113 120.11 56.4309 119.249C56.4211 119.21 56.4211 119.171 56.4211 119.132Z" fill="url(#paint1_linear)"/>
<path d="M26.4525 128.531L6.63285 117.078C4.30802 115.738 4.30802 113.557 6.63285 112.217L26.4525 100.764C28.7773 99.4243 32.5478 99.4243 34.8726 100.764L54.6922 112.217C57.0171 113.557 57.0171 115.738 54.6922 117.078L34.8726 128.531C32.5478 129.87 28.7773 129.87 26.4525 128.531Z" fill="url(#paint2_linear)"/>
<path d="M54.6823 117.068L34.8627 128.521C32.5379 129.861 28.7674 129.861 26.4426 128.521L6.62296 117.068C5.58753 116.471 5.01121 115.699 4.90376 114.916C4.76701 115.885 5.34333 116.882 6.62296 117.626L26.4426 129.078C28.7674 130.418 32.5379 130.418 34.8627 129.078L54.6823 117.626C55.962 116.882 56.5383 115.885 56.4015 114.916C56.2941 115.709 55.7178 116.471 54.6823 117.068Z" fill="white"/>
<path d="M115.47 30.8862L88.7536 15.4431L115.47 0L142.185 15.4431L115.47 30.8862Z" fill="#670A4A"/>
<path d="M115.47 187.088L88.7536 171.645L115.47 59.2687L142.185 171.645L115.47 187.088Z" fill="white"/>
<path d="M142.185 15.4431V171.645L115.47 187.088V30.8862L142.185 15.4431Z" fill="url(#paint3_linear)"/>
<path d="M88.7536 15.4431V171.645L115.47 187.088V30.8862L88.7536 15.4431Z" fill="#E3B505"/>
<g opacity="0.51">
<path d="M90.5704 19.3748V169.581L113.662 182.931V32.7249L90.5704 19.3748Z" fill="#670A4A"/>
</g>
<path d="M138.181 149.003V150.568L119.474 161.375V159.81L138.181 149.003Z" fill="#453C9E"/>
<path d="M138.181 155.624V157.189L119.474 167.996V166.432L138.181 155.624Z" fill="#453C9E"/>
<mask id="mask0" mask-type="alpha" maskUnits="userSpaceOnUse" x="88" y="1" width="28" height="24">
<path d="M115.47 24.8713H108.446L88.7536 13.487L110.185 1.09534H115.47V24.8713Z" fill="url(#paint4_linear)"/>
</mask>
<g mask="url(#mask0)">
<g opacity="0.51">
<path opacity="0.51" d="M88.7536 98.879L115.47 49.195V30.8862L88.7536 15.4431V98.879Z" fill="#453C9E"/>
</g>
<path d="M92.0064 19.766C92.0064 19.0912 91.5277 18.2599 90.9416 17.9273C90.6486 17.7611 90.3751 17.7415 90.1895 17.8589L89.4373 18.299L89.9062 18.3185C89.8964 18.387 89.8867 18.4653 89.8867 18.5533C89.8867 19.2281 90.3653 20.0594 90.9514 20.392C91.0296 20.4409 91.1077 20.4702 91.1761 20.4898L90.9612 20.8908L91.6938 20.4604C91.8892 20.3431 92.0064 20.1083 92.0064 19.766Z" fill="url(#paint5_linear)"/>
<path d="M91.2542 20.2056C91.2542 20.8805 90.7756 21.1641 90.1895 20.8218C89.6034 20.4795 89.1248 19.6579 89.1248 18.9831C89.1248 18.3082 89.6034 18.0246 90.1895 18.3669C90.7756 18.7092 91.2542 19.5308 91.2542 20.2056Z" fill="url(#paint6_linear)"/>
<path d="M90.7951 19.9519C90.7951 20.3431 90.5216 20.4996 90.1797 20.304C89.8378 20.1084 89.5643 19.6389 89.5643 19.2477C89.5643 18.8565 89.8378 18.7 90.1797 18.8956C90.5216 19.0814 90.7951 19.5607 90.7951 19.9519Z" fill="#3F21D3"/>
<path d="M93.2078 27.1795L91.6254 26.2601V23.6488L93.2078 24.5682V27.1795Z" fill="#453C9E"/>
<path d="M115.47 30.1723L89.3787 15.0813L88.7536 15.4432L115.47 30.8863L142.185 15.4432L141.56 15.0813L115.47 30.1723Z" fill="white"/>
</g>
<path d="M175.505 55.2295L148.789 39.7864L175.505 24.3433L202.211 39.7864L175.505 55.2295Z" fill="#EAB0D8"/>
<path d="M175.505 52.716L153.145 39.7864L175.505 26.8666L197.864 39.7864L175.505 52.716Z" fill="#670A4A"/>
<path d="M175.505 28.9596L196.047 40.8427L197.864 39.7864L175.505 26.8666L153.145 39.7864L154.962 40.8427L175.505 28.9596Z" fill="black"/>
<path d="M175.505 151.351L148.789 135.907L175.505 83.6218L202.211 135.907L175.505 151.351Z" fill="white"/>
<path d="M202.211 39.7864V135.907L175.505 151.35V55.2295L202.211 39.7864Z" fill="url(#paint7_linear)"/>
<path d="M148.789 39.7864V135.907L175.505 151.35V55.2295L148.789 39.7864Z" fill="#670A4A"/>
<g opacity="0.51">
<path opacity="0.51" d="M150.596 43.718V133.844L173.688 147.194V57.0682L150.596 43.718Z" fill="#670A4A"/>
</g>
<path d="M198.206 54.1047V55.6794L179.51 66.4866V64.9218L198.206 54.1047Z" fill="#670A4A"/>
<path d="M198.206 60.7358V62.3007L179.51 73.1079V71.5431L198.206 60.7358Z" fill="#453C9E"/>
<path d="M198.206 67.3571V68.9219L179.51 79.7292V78.1643L198.206 67.3571Z" fill="#670A4A"/>
<path d="M198.206 73.9784V75.553L179.51 86.3603V84.7954L198.206 73.9784Z" fill="#670A4A"/>
<path d="M198.206 80.6094V82.1742L179.51 92.9815V91.4166L198.206 80.6094Z" fill="#670A4A"/>
<path d="M198.206 87.2307V88.7956L179.51 99.6028V98.038L198.206 87.2307Z" fill="#670A4A"/>
<path d="M198.206 93.8521V95.4267L179.51 106.234V104.669L198.206 93.8521Z" fill="#453C9E"/>
<path d="M198.206 100.483V102.048L179.51 112.855V111.29L198.206 100.483Z" fill="#706EC4"/>
<path d="M198.206 107.104V108.669L179.51 119.476V117.912L198.206 107.104Z" fill="#453C9E"/>
<path d="M198.206 113.726V115.29L179.51 126.107V124.533L198.206 113.726Z" fill="#453C9E"/>
<path d="M198.206 120.357V121.922L179.51 132.729V131.164L198.206 120.357Z" fill="#706EC4"/>
<path d="M198.206 126.978V128.543L179.51 139.35V137.785L198.206 126.978Z" fill="#706EC4"/>
<path d="M198.206 60.7358V62.3007L179.51 73.1079V71.5431L198.206 60.7358Z" fill="#670A4A"/>
<g opacity="0.51">
<path opacity="0.4" d="M148.789 123.222L175.505 73.548V55.2295L148.789 39.7864V123.222Z" fill="black"/>
</g>
<path d="M123.401 176.603C123.167 172.554 125.052 168.397 129.067 166.08L296.786 69.1077L283.941 62.3593L121.36 156.974C113.809 161.336 110.175 169.102 110.439 176.74C114.756 176.809 119.084 176.848 123.401 176.603Z" fill="black"/>
<path d="M110.439 176.173C110.429 175.87 110.439 175.576 110.439 175.273C110.429 175.762 110.429 176.251 110.439 176.73C114.756 176.809 119.084 176.848 123.401 176.603C123.391 176.417 123.391 176.232 123.391 176.046C119.074 176.29 114.756 176.241 110.439 176.173Z" fill="url(#paint8_linear)"/>
<g filter="url(#filter1_d)">
<path d="M129.067 162.793L296.786 65.8215L285.035 59.0731L121.36 153.688C114.092 157.893 110.449 165.229 110.419 172.584C114.766 172.662 119.113 172.681 123.392 172.691C123.372 168.847 125.257 164.994 129.067 162.793Z" fill="#E3B505"/>
</g>
<path d="M214.724 91.8665L188.018 76.4234L214.724 60.9802L241.44 76.4234L214.724 91.8665Z" fill="#CA8CB6"/>
<path d="M214.724 187.988L188.018 172.544L214.724 120.259L241.44 172.544L214.724 187.988Z" fill="white"/>
<path d="M241.44 76.4233V172.544L214.724 187.987V91.8665L241.44 76.4233Z" fill="url(#paint9_linear)"/>
<path d="M188.018 76.4233V172.544L214.724 187.987V91.8665L188.018 76.4233Z" fill="#670A4A"/>
<g opacity="0.51">
<path d="M189.825 80.355V170.481L212.917 183.831V93.7051L189.825 80.355Z" fill="#670A4A"/>
</g>
<g opacity="0.51">
<path opacity="0.3" d="M188.018 159.859L214.724 110.185V91.8665L188.018 76.4233V159.859Z" fill="white"/>
</g>
<path d="M214.724 91.1525L188.633 76.0713L188.018 76.4234L214.724 91.8665L241.44 76.4234L240.824 76.0713L214.724 91.1525Z" fill="white"/>
<path d="M165.307 118.655L138.601 103.212L165.307 87.7686L192.023 103.212L165.307 118.655Z" fill="#AA167C" fill-opacity="0.67"/>
<path d="M165.307 117.941L139.216 102.86L138.601 103.212L165.307 118.655L192.023 103.212L191.398 102.86L165.307 117.941Z" fill="white"/>
<path d="M165.307 214.776L138.601 199.333L165.307 147.047L192.023 199.333L165.307 214.776Z" fill="white"/>
<path d="M192.023 103.212V199.333L165.307 214.776V118.655L192.023 103.212Z" fill="url(#paint10_linear)"/>
<path d="M138.601 103.212V199.333L165.307 214.776V118.655L138.601 103.212Z" fill="#670A4A"/>
<g opacity="0.51">
<path opacity="0.51" d="M140.408 107.143V197.269L163.5 210.619V120.493L140.408 107.143Z" fill="#670A4A"/>
</g>
<path d="M188.018 117.54V119.105L169.312 129.912V128.347L188.018 117.54Z" fill="#670A4A"/>
<path d="M188.018 124.161V125.726L169.312 136.533V134.968L188.018 124.161Z" fill="#453C9E"/>
<path d="M188.018 130.782V132.347L169.312 143.164V141.59L188.018 130.782Z" fill="#670A4A"/>
<path d="M188.018 137.404V138.978L169.312 149.786V148.221L188.018 137.404Z" fill="#670A4A"/>
<path d="M188.018 144.035V145.6L169.312 156.407V154.842L188.018 144.035Z" fill="#670A4A"/>
<path d="M188.018 150.656V152.221L169.312 163.028V161.463L188.018 150.656Z" fill="#670A4A"/>
<path d="M188.018 157.277V158.852L169.312 169.659V168.094L188.018 157.277Z" fill="#670A4A"/>
<path d="M188.018 163.908V165.473L169.312 176.28V174.716L188.018 163.908Z" fill="#670A4A"/>
<path d="M188.018 170.53V172.095L169.312 182.902V181.337L188.018 170.53Z" fill="#670A4A"/>
<path d="M188.018 177.151V178.726L169.312 189.533V187.968L188.018 177.151Z" fill="#670A4A"/>
<path d="M188.018 183.782V185.347L169.312 196.154V194.589L188.018 183.782Z" fill="#670A4A"/>
<path d="M188.018 190.403V191.968L169.312 202.775V201.21L188.018 190.403Z" fill="#670A4A"/>
<path d="M188.018 124.161V125.726L169.312 136.533V134.968L188.018 124.161Z" fill="#670A4A"/>
<g opacity="0.51">
<path opacity="0.2" d="M138.601 186.648L165.307 136.973V118.655L138.601 103.212V186.648Z" fill="black"/>
</g>
<path d="M180.994 224.586L176.667 217.084C174.528 213.377 171.627 210.306 168.599 208.556L129.077 185.787C125.501 183.723 123.606 180.202 123.401 176.594C119.084 176.848 114.756 176.799 110.439 176.721C110.693 183.831 114.317 190.843 121.36 194.912L156.76 215.382C159.788 217.133 162.689 220.194 164.828 223.911L169.155 231.412C171.295 235.119 174.196 238.19 177.224 239.941L207.222 257.193L218.446 250.005L189.073 233.114C186.035 231.363 183.134 228.302 180.994 224.586Z" fill="black"/>
<g filter="url(#filter2_d)">
<path d="M180.994 221.309L176.667 213.808C174.528 210.101 171.627 207.03 168.599 205.279L129.077 182.511C125.296 180.33 123.391 176.515 123.382 172.691C121.848 172.691 120.119 167.498 118.576 167.429C115.802 167.322 113.203 172.3 110.41 172.251C110.38 179.655 114.024 187.401 121.35 191.636L156.75 212.106C159.778 213.857 162.679 216.918 164.818 220.634L169.146 228.136C171.285 231.843 174.186 234.914 177.214 236.664L207.222 253.926L219.071 247.1L189.063 229.838C186.035 228.087 183.134 225.026 180.994 221.309Z" fill="#E3B505"/>
</g>
<path d="M175.505 26.8666L153.145 39.7864L154.962 40.8427L175.505 28.9596V26.8666Z" fill="#420730"/>
<path d="M37.2656 242.464C36.0934 242.464 34.9114 242.161 33.8369 241.535C31.6684 240.293 30.3692 238.053 30.3692 235.549V153.864H31.1214V235.549C31.1214 237.779 32.274 239.774 34.2081 240.879C36.1422 241.985 38.4377 241.975 40.3621 240.85L105.291 202.795L105.672 203.44L40.743 241.496C39.6588 242.141 38.4671 242.464 37.2656 242.464Z" fill="#670A4A"/>
<path d="M214.724 88.9911L192.365 76.0713L214.724 63.1417L237.083 76.0713L214.724 88.9911Z" fill="#670A4A"/>
<path d="M214.724 65.2445L235.266 77.1178L237.083 76.0713L214.724 63.1417L192.365 76.0713L194.181 77.1178L214.724 65.2445Z" fill="#4A0635"/>
<path d="M214.724 63.1417L192.365 76.0713L194.181 77.1178L214.724 65.2445V63.1417Z" fill="#490835"/>
<g opacity="0.3">
<path opacity="0.3" d="M300 157.424V152.925L298.759 152.231C298.408 154.353 295.917 155.752 293.827 156.045L279.624 164.358L273.431 166.598L253.65 156.378L254.109 156.113C252.419 155.321 251.511 153.512 250.593 151.869L249.264 152.661L248.473 152.886V157.492C248.473 158.373 249.049 159.253 250.212 159.928L270.031 171.381C272.356 172.72 276.127 172.72 278.451 171.381L298.271 159.928C299.414 159.272 299.99 158.402 300.01 157.541C300 157.502 300 157.463 300 157.424Z" fill="url(#paint11_linear)"/>
<path opacity="0.3" d="M293.827 156.055L279.624 164.368L274.232 166.314V172.388C275.755 172.388 277.279 172.055 278.442 171.38L298.261 159.928C299.404 159.272 299.98 158.402 300 157.541C300 157.502 300 157.463 300 157.424V152.925L298.867 152.289H298.75C298.359 154.392 295.897 155.761 293.827 156.055Z" fill="#0F054C"/>
<g opacity="0.3">
<path opacity="0.3" d="M270.031 166.823L250.212 155.37C247.887 154.03 247.887 151.849 250.212 150.509L270.031 139.057C272.356 137.717 276.127 137.717 278.451 139.057L298.271 150.509C300.596 151.849 300.596 154.03 298.271 155.37L278.451 166.823C276.127 168.163 272.346 168.163 270.031 166.823Z" fill="url(#paint12_linear)"/>
</g>
<g opacity="0.3">
<path opacity="0.3" d="M270.031 166.823L250.212 155.37C247.887 154.03 247.887 151.849 250.212 150.509L270.031 139.057C272.356 137.717 276.127 137.717 278.451 139.057L298.271 150.509C300.596 151.849 300.596 154.03 298.271 155.37L278.451 166.823C276.127 168.163 272.346 168.163 270.031 166.823Z" fill="#0F054C"/>
</g>
</g>
<path d="M274.241 150.157C272.893 150.157 271.536 149.864 270.51 149.267L250.69 137.814C249.665 137.218 249.098 136.416 249.098 135.555C249.098 134.694 249.665 133.892 250.69 133.296L270.51 121.843C272.571 120.65 275.921 120.65 277.983 121.843L297.802 133.296C298.828 133.892 299.394 134.694 299.394 135.555C299.394 136.416 298.828 137.218 297.802 137.814L277.983 149.267C276.947 149.854 275.589 150.157 274.241 150.157ZM270.676 148.964C272.639 150.098 275.834 150.098 277.797 148.964L297.617 137.511C298.535 136.983 299.043 136.289 299.043 135.555C299.043 134.822 298.535 134.127 297.617 133.599L277.797 122.146C275.834 121.012 272.639 121.012 270.676 122.146L250.856 133.599C249.938 134.127 249.43 134.822 249.43 135.555C249.43 136.289 249.938 136.983 250.856 137.511L270.676 148.964Z" fill="#E3B505"/>
<path opacity="0.4" d="M300 131.154V124.357L298.759 123.662C298.408 125.785 295.917 127.183 293.827 127.477L279.624 135.79L273.431 138.03L253.65 127.809L254.109 127.545C252.419 126.753 251.511 124.944 250.593 123.3L249.264 124.093L248.473 124.318V131.222C248.473 132.103 249.049 132.983 250.212 133.658L270.031 145.111C272.356 146.45 276.127 146.45 278.451 145.111L298.271 133.658C299.414 133.003 299.99 132.132 300.01 131.271C300 131.222 300 131.193 300 131.154Z" fill="#E3B505"/>
<path d="M300 125.11V120.611L298.759 119.916C298.408 122.039 295.917 123.437 293.827 123.731L279.624 132.044L273.431 134.284L253.65 124.063L254.109 123.799C252.419 123.007 251.511 121.198 250.593 119.555L249.264 120.347L248.473 120.572V125.188C248.473 126.068 249.049 126.948 250.212 127.623L270.031 139.076C272.356 140.416 276.127 140.416 278.451 139.076L298.271 127.623C299.414 126.968 299.99 126.098 300.01 125.237C300 125.188 300 125.149 300 125.11Z" fill="url(#paint13_linear)"/>
<path d="M270.031 134.499L250.212 123.046C247.887 121.706 247.887 119.525 250.212 118.185L270.031 106.733C272.356 105.393 276.127 105.393 278.452 106.733L298.271 118.185C300.596 119.525 300.596 121.706 298.271 123.046L278.452 134.499C276.127 135.849 272.346 135.849 270.031 134.499Z" fill="url(#paint14_linear)"/>
<path d="M274.241 132.425C273.02 132.425 271.799 132.161 270.871 131.624L255.389 122.675C254.451 122.137 253.943 121.403 253.943 120.621C253.943 119.838 254.461 119.105 255.389 118.567L270.871 109.618C272.727 108.542 275.755 108.542 277.621 109.618L293.104 118.567C294.041 119.105 294.549 119.838 294.549 120.621C294.549 121.403 294.032 122.137 293.104 122.675L277.621 131.624C276.683 132.152 275.462 132.425 274.241 132.425ZM274.232 109.148C273.069 109.148 271.917 109.403 271.028 109.911L255.545 118.86C254.725 119.33 254.275 119.956 254.275 120.611C254.275 121.266 254.725 121.882 255.545 122.362L271.028 131.311C272.796 132.328 275.668 132.328 277.426 131.311L292.908 122.362C293.729 121.892 294.178 121.266 294.178 120.611C294.178 119.956 293.729 119.339 292.908 118.86L277.426 109.911C276.556 109.412 275.394 109.148 274.232 109.148Z" fill="#670A4A"/>
<path d="M298.261 123.046L278.442 134.499C276.117 135.839 272.346 135.839 270.021 134.499L250.202 123.046C249.166 122.45 248.59 121.677 248.483 120.895C248.346 121.863 248.922 122.86 250.202 123.604L270.021 135.056C272.346 136.396 276.117 136.396 278.442 135.056L298.261 123.604C299.541 122.86 300.117 121.863 299.98 120.895C299.873 121.687 299.297 122.45 298.261 123.046Z" fill="white"/>
<g opacity="0.3">
<path opacity="0.3" d="M132.642 245.036V240.537L131.401 239.843C131.05 241.965 128.559 243.364 126.468 243.657L112.266 251.97L106.073 254.21L86.292 243.99L86.7511 243.725C85.0612 242.933 84.1528 241.124 83.2346 239.481L81.9061 240.273L81.1149 240.498V245.105C81.1149 245.985 81.6912 246.865 82.8536 247.54L102.673 258.993C104.998 260.332 108.769 260.332 111.093 258.993L130.913 247.54C132.056 246.885 132.632 246.014 132.652 245.153C132.642 245.114 132.642 245.075 132.642 245.036Z" fill="url(#paint15_linear)"/>
<path opacity="0.3" d="M126.468 243.657L112.266 251.97L106.874 253.917V259.99C108.397 259.99 109.921 259.658 111.084 258.983L130.903 247.53C132.046 246.875 132.622 246.004 132.642 245.144C132.642 245.105 132.642 245.065 132.642 245.026V240.527L131.509 239.892H131.392C131.001 241.994 128.539 243.373 126.468 243.657Z" fill="#0F054C"/>
<g opacity="0.3">
<path opacity="0.3" d="M102.673 254.425L82.8536 242.972C80.5288 241.633 80.5288 239.452 82.8536 238.112L102.673 226.659C104.998 225.319 108.769 225.319 111.093 226.659L130.913 238.112C133.238 239.452 133.238 241.633 130.913 242.972L111.093 254.425C108.769 255.765 104.998 255.765 102.673 254.425Z" fill="url(#paint16_linear)"/>
</g>
<g opacity="0.3">
<path opacity="0.3" d="M102.673 254.425L82.8536 242.972C80.5288 241.633 80.5288 239.452 82.8536 238.112L102.673 226.659C104.998 225.319 108.769 225.319 111.093 226.659L130.913 238.112C133.238 239.452 133.238 241.633 130.913 242.972L111.093 254.425C108.769 255.765 104.998 255.765 102.673 254.425Z" fill="#0F054C"/>
</g>
</g>
<path d="M106.883 240.703C105.535 240.703 104.178 240.41 103.152 239.813L83.3322 228.361C82.3066 227.764 81.74 226.962 81.74 226.101C81.74 225.241 82.3066 224.439 83.3322 223.842L103.152 212.389C105.213 211.196 108.563 211.196 110.625 212.389L130.444 223.842C131.47 224.439 132.036 225.241 132.036 226.101C132.036 226.962 131.47 227.764 130.444 228.361L110.625 239.813C109.589 240.41 108.231 240.703 106.883 240.703ZM106.883 211.832C105.594 211.832 104.305 212.116 103.318 212.683L83.4983 224.136C82.5801 224.664 82.0722 225.358 82.0722 226.092C82.0722 226.825 82.5801 227.52 83.4983 228.048L103.318 239.5C105.281 240.635 108.476 240.635 110.439 239.5L130.259 228.048C131.177 227.52 131.685 226.825 131.685 226.092C131.685 225.358 131.177 224.664 130.259 224.136L110.439 212.683C109.462 212.116 108.173 211.832 106.883 211.832Z" fill="#E3B505"/>
<path opacity="0.4" d="M132.642 221.7V214.903L131.401 214.209C131.05 216.331 128.559 217.729 126.468 218.023L112.266 226.336L106.073 228.576L86.292 218.355L86.7511 218.091C85.0612 217.299 84.1528 215.49 83.2346 213.847L81.9061 214.639L81.1149 214.864V221.769C81.1149 222.649 81.6912 223.529 82.8536 224.204L102.673 235.657C104.998 236.997 108.769 236.997 111.093 235.657L130.913 224.204C132.056 223.549 132.632 222.678 132.652 221.818C132.642 221.779 132.642 221.739 132.642 221.7Z" fill="#E3B505"/>
<path d="M132.642 215.666V211.167L131.401 210.472C131.05 212.595 128.559 213.993 126.468 214.287L112.266 222.6L106.073 224.84L86.292 214.619L86.7511 214.355C85.0612 213.563 84.1528 211.754 83.2346 210.111L81.9061 210.903L81.1149 211.128V215.734C81.1149 216.615 81.6912 217.495 82.8536 218.17L102.673 229.622C104.998 230.962 108.769 230.962 111.093 229.622L130.913 218.17C132.056 217.514 132.632 216.644 132.652 215.783C132.642 215.734 132.642 215.695 132.642 215.666Z" fill="url(#paint17_linear)"/>
<path opacity="0.3" d="M126.468 214.287L112.266 222.6L106.874 224.546V230.62C108.397 230.62 109.921 230.287 111.084 229.613L130.903 218.16C132.046 217.505 132.622 216.634 132.642 215.773C132.642 215.734 132.642 215.695 132.642 215.656V211.157L131.509 210.521H131.392C131.001 212.624 128.539 213.993 126.468 214.287Z" fill="#0F054C"/>
<path d="M86.7511 214.355L105.526 203.499C106.268 203.069 107.479 203.069 108.222 203.499L126.674 214.16L126.468 214.277C128.549 213.984 131.05 212.585 131.401 210.463L110.693 198.932L104.666 197.338L99.7623 200.223L83.2346 210.091C84.1528 211.754 85.0612 213.563 86.7511 214.355Z" fill="url(#paint18_linear)"/>
<path opacity="0.3" d="M106.883 197.934L104.676 197.347L99.7721 200.232L83.2443 210.101C84.1625 211.754 85.071 213.563 86.7609 214.345L105.535 203.489C105.906 203.274 106.395 203.167 106.883 203.167V197.934Z" fill="#0F054C"/>
<path d="M102.673 225.055L82.8536 213.602C80.5288 212.262 80.5288 210.081 82.8536 208.741L102.673 197.289C104.998 195.949 108.769 195.949 111.093 197.289L130.913 208.741C133.238 210.081 133.238 212.262 130.913 213.602L111.093 225.055C108.769 226.395 104.998 226.395 102.673 225.055ZM108.231 198.932C107.489 198.501 106.278 198.501 105.535 198.932L85.7157 210.384C84.9733 210.815 84.9733 211.509 85.7157 211.94L105.535 223.392C106.278 223.823 107.489 223.823 108.231 223.392L128.051 211.94C128.793 211.509 128.793 210.815 128.051 210.384L108.231 198.932Z" fill="url(#paint19_linear)"/>
<path d="M128.041 210.385L108.231 198.932C107.489 198.501 106.278 198.501 105.535 198.932L85.7157 210.385C85.2175 210.668 85.0612 211.079 85.2273 211.441C85.3054 211.255 85.4715 211.089 85.7157 210.942L105.535 199.489C106.278 199.059 107.489 199.059 108.231 199.489L128.051 210.942C128.295 211.089 128.461 211.255 128.539 211.441C128.705 211.079 128.539 210.678 128.041 210.385Z" fill="white"/>
<path d="M130.903 213.602L111.084 225.055C108.759 226.395 104.988 226.395 102.663 225.055L82.8536 213.602C81.8182 213.006 81.2418 212.233 81.1344 211.451C80.9976 212.419 81.574 213.416 82.8536 214.16L102.673 225.612C104.998 226.952 108.769 226.952 111.093 225.612L130.913 214.16C132.193 213.416 132.769 212.419 132.632 211.451C132.515 212.233 131.939 212.996 130.903 213.602Z" fill="white"/>
<path d="M103.23 224.732L83.4201 213.279C81.4079 212.115 81.4079 210.227 83.4201 209.064L103.24 197.611C105.252 196.447 108.524 196.447 110.537 197.611L130.356 209.064C132.368 210.227 132.368 212.115 130.356 213.279L110.537 224.732C108.515 225.895 105.242 225.895 103.23 224.732ZM108.788 198.608C107.733 198.002 106.024 198.002 104.979 198.608L85.1589 210.061C84.1039 210.668 84.1039 211.655 85.1589 212.262L104.979 223.714C106.033 224.321 107.743 224.321 108.788 223.714L128.608 212.262C129.663 211.655 129.663 210.668 128.608 210.061L108.788 198.608Z" fill="url(#paint20_linear)"/>
<path opacity="0.4" d="M108.231 198.932C107.489 198.501 106.278 198.501 105.535 198.932L85.7157 210.385C84.9733 210.815 84.9733 211.509 85.7157 211.94L105.535 223.392C106.278 223.823 107.489 223.823 108.231 223.392L128.051 211.94C128.793 211.509 128.793 210.815 128.051 210.385L108.231 198.932Z" fill="#E3B505"/>
</g>
<defs>
<filter id="filter0_d" x="23.7907" y="23.6714" width="189.121" height="126.233" filterUnits="userSpaceOnUse" color-interpolation-filters="sRGB">
<feFlood flood-opacity="0" result="BackgroundImageFix"/>
<feColorMatrix in="SourceAlpha" type="matrix" values="0 0 0 0 0 0 0 0 0 0 0 0 0 0 0 0 0 0 127 0"/>
<feOffset dy="5"/>
<feGaussianBlur stdDeviation="10"/>
<feColorMatrix type="matrix" values="0 0 0 0 0.890196 0 0 0 0 0.709804 0 0 0 0 0.0196078 0 0 0 1 0"/>
<feBlend mode="normal" in2="BackgroundImageFix" result="effect1_dropShadow"/>
<feBlend mode="normal" in="SourceGraphic" in2="effect1_dropShadow" result="shape"/>
</filter>
<filter id="filter1_d" x="90.4194" y="44.0731" width="226.367" height="153.618" filterUnits="userSpaceOnUse" color-interpolation-filters="sRGB">
<feFlood flood-opacity="0" result="BackgroundImageFix"/>
<feColorMatrix in="SourceAlpha" type="matrix" values="0 0 0 0 0 0 0 0 0 0 0 0 0 0 0 0 0 0 127 0"/>
<feOffset dy="5"/>
<feGaussianBlur stdDeviation="10"/>
<feColorMatrix type="matrix" values="0 0 0 0 0.890196 0 0 0 0 0.709804 0 0 0 0 0.0196078 0 0 0 1 0"/>
<feBlend mode="normal" in2="BackgroundImageFix" result="effect1_dropShadow"/>
<feBlend mode="normal" in="SourceGraphic" in2="effect1_dropShadow" result="shape"/>
</filter>
<filter id="filter2_d" x="90.4094" y="152.428" width="148.661" height="126.499" filterUnits="userSpaceOnUse" color-interpolation-filters="sRGB">
<feFlood flood-opacity="0" result="BackgroundImageFix"/>
<feColorMatrix in="SourceAlpha" type="matrix" values="0 0 0 0 0 0 0 0 0 0 0 0 0 0 0 0 0 0 127 0"/>
<feOffset dy="5"/>
<feGaussianBlur stdDeviation="10"/>
<feColorMatrix type="matrix" values="0 0 0 0 0.890196 0 0 0 0 0.709804 0 0 0 0 0.0196078 0 0 0 1 0"/>
<feBlend mode="normal" in2="BackgroundImageFix" result="effect1_dropShadow"/>
<feBlend mode="normal" in="SourceGraphic" in2="effect1_dropShadow" result="shape"/>
</filter>
<linearGradient id="paint0_linear" x1="110.422" y1="168.685" x2="122.747" y2="168.685" gradientUnits="userSpaceOnUse">
<stop stop-color="#42E8E0"/>
<stop offset="1" stop-color="#42E8E0"/>
</linearGradient>
<linearGradient id="paint1_linear" x1="10.0244" y1="105.707" x2="50.9316" y2="129.295" gradientUnits="userSpaceOnUse">
<stop stop-color="#AA207F"/>
<stop offset="1" stop-color="#670A4A"/>
</linearGradient>
<linearGradient id="paint2_linear" x1="4.89851" y1="114.64" x2="56.4248" y2="114.64" gradientUnits="userSpaceOnUse">
<stop stop-color="#F2F2F2"/>
<stop offset="1" stop-color="#DFDFDF"/>
</linearGradient>
<linearGradient id="paint3_linear" x1="128.828" y1="148.749" x2="128.828" y2="19.0877" gradientUnits="userSpaceOnUse">
<stop stop-color="#4C0A67"/>
<stop offset="1" stop-color="#9D307B"/>
</linearGradient>
<linearGradient id="paint4_linear" x1="88.7578" y1="12.9837" x2="115.47" y2="12.9837" gradientUnits="userSpaceOnUse">
<stop/>
<stop offset="0.0469" stop-color="#2F2F2F"/>
<stop offset="0.0981" stop-color="#5A5A5A"/>
<stop offset="0.155" stop-color="#828282"/>
<stop offset="0.2161" stop-color="#A4A4A4"/>
<stop offset="0.2828" stop-color="#C0C0C0"/>
<stop offset="0.3571" stop-color="#D7D7D7"/>
<stop offset="0.442" stop-color="#E9E9E9"/>
<stop offset="0.5443" stop-color="#F6F6F6"/>
<stop offset="0.6813" stop-color="#FDFDFD"/>
<stop offset="1" stop-color="white"/>
</linearGradient>
<linearGradient id="paint5_linear" x1="89.4385" y1="19.3336" x2="92.0089" y2="19.3336" gradientUnits="userSpaceOnUse">
<stop stop-color="#C0BFF6"/>
<stop offset="0.2938" stop-color="#C5C4F7"/>
<stop offset="0.6399" stop-color="#D3D2F9"/>
<stop offset="1" stop-color="#E9E9FD"/>
</linearGradient>
<linearGradient id="paint6_linear" x1="89.1257" y1="19.5952" x2="91.2513" y2="19.5952" gradientUnits="userSpaceOnUse">
<stop stop-color="#5761D7"/>
<stop offset="0.1779" stop-color="#5C66D9"/>
<stop offset="0.3876" stop-color="#6A73DF"/>
<stop offset="0.6134" stop-color="#8289E8"/>
<stop offset="0.849" stop-color="#A3A7F5"/>
<stop offset="1" stop-color="#BCBEFF"/>
</linearGradient>
<linearGradient id="paint7_linear" x1="188.859" y1="126.431" x2="188.859" y2="42.1553" gradientUnits="userSpaceOnUse">
<stop stop-color="#EBEBEB"/>
<stop offset="1" stop-color="#BB6CA2"/>
</linearGradient>
<linearGradient id="paint8_linear" x1="110.422" y1="176.03" x2="123.402" y2="176.03" gradientUnits="userSpaceOnUse">
<stop stop-color="#42E8E0"/>
<stop offset="1" stop-color="#42E8E0"/>
</linearGradient>
<linearGradient id="paint9_linear" x1="228.083" y1="163.068" x2="228.083" y2="78.7922" gradientUnits="userSpaceOnUse">
<stop stop-color="#670A4A"/>
<stop offset="1" stop-color="#EB86CB"/>
</linearGradient>
<linearGradient id="paint10_linear" x1="178.666" y1="189.857" x2="178.666" y2="105.581" gradientUnits="userSpaceOnUse">
<stop stop-color="#EBEBEB"/>
<stop offset="1" stop-color="#DDB2D0"/>
</linearGradient>
<linearGradient id="paint11_linear" x1="253.6" y1="143.999" x2="294.507" y2="167.587" gradientUnits="userSpaceOnUse">
<stop stop-color="#BCBEFF"/>
<stop offset="0.2271" stop-color="#AAADF8"/>
<stop offset="0.6802" stop-color="#7C83E5"/>
<stop offset="1" stop-color="#5761D7"/>
</linearGradient>
<linearGradient id="paint12_linear" x1="248.474" y1="152.932" x2="300" y2="152.932" gradientUnits="userSpaceOnUse">
<stop stop-color="#E9E9FD"/>
<stop offset="0.3601" stop-color="#D3D2F9"/>
<stop offset="0.7062" stop-color="#C5C4F7"/>
<stop offset="1" stop-color="#C0BFF6"/>
</linearGradient>
<linearGradient id="paint13_linear" x1="253.6" y1="111.684" x2="294.507" y2="135.272" gradientUnits="userSpaceOnUse">
<stop stop-color="#A53782"/>
<stop offset="1" stop-color="#670A4A"/>
</linearGradient>
<linearGradient id="paint14_linear" x1="248.477" y1="120.612" x2="300.004" y2="120.612" gradientUnits="userSpaceOnUse">
<stop stop-color="#F2F2F2"/>
<stop offset="1" stop-color="#DFDFDF"/>
</linearGradient>
<linearGradient id="paint15_linear" x1="86.2435" y1="231.608" x2="127.151" y2="255.197" gradientUnits="userSpaceOnUse">
<stop stop-color="#BCBEFF"/>
<stop offset="0.2271" stop-color="#AAADF8"/>
<stop offset="0.6802" stop-color="#7C83E5"/>
<stop offset="1" stop-color="#5761D7"/>
</linearGradient>
<linearGradient id="paint16_linear" x1="81.1174" y1="240.541" x2="132.644" y2="240.541" gradientUnits="userSpaceOnUse">
<stop stop-color="#E9E9FD"/>
<stop offset="0.3601" stop-color="#D3D2F9"/>
<stop offset="0.7062" stop-color="#C5C4F7"/>
<stop offset="1" stop-color="#C0BFF6"/>
</linearGradient>
<linearGradient id="paint17_linear" x1="86.2435" y1="202.233" x2="127.151" y2="225.821" gradientUnits="userSpaceOnUse">
<stop stop-color="#C5479D"/>
<stop offset="1" stop-color="#670A4A"/>
</linearGradient>
<linearGradient id="paint18_linear" x1="88.697" y1="200.642" x2="125.178" y2="221.678" gradientUnits="userSpaceOnUse">
<stop offset="0.2421" stop-color="#5761D7"/>
<stop offset="0.3923" stop-color="#7A82E5"/>
<stop offset="0.5463" stop-color="#979CF0"/>
<stop offset="0.7" stop-color="#ACAFF8"/>
<stop offset="0.8519" stop-color="#B8BAFD"/>
<stop offset="1" stop-color="#BCBEFF"/>
</linearGradient>
<linearGradient id="paint19_linear" x1="81.1174" y1="211.166" x2="132.644" y2="211.166" gradientUnits="userSpaceOnUse">
<stop stop-color="#E9E9FD"/>
<stop offset="0.3601" stop-color="#D3D2F9"/>
<stop offset="0.7062" stop-color="#C5C4F7"/>
<stop offset="1" stop-color="#C0BFF6"/>
</linearGradient>
<linearGradient id="paint20_linear" x1="81.92" y1="211.164" x2="131.855" y2="211.164" gradientUnits="userSpaceOnUse">
<stop stop-color="#F2F2F2"/>
<stop offset="1" stop-color="#DFDFDF"/>
</linearGradient>
<clipPath id="clip0">
<rect width="300" height="260" fill="white"/>
</clipPath>
</defs>
</svg>
