<svg width="300" height="260" viewBox="0 0 300 260" fill="none" xmlns="http://www.w3.org/2000/svg">
<g clip-path="url(#clip0)">
<g opacity="0.1" filter="url(#filter0_f)">
<path d="M297.736 123.891L206.502 69.8013C203.503 68.0207 198.627 68.0207 195.607 69.8013L2.26486 184.433C-0.73412 186.214 -0.73412 189.105 2.26486 190.885L93.4991 244.975C96.4981 246.756 101.374 246.756 104.393 244.975L297.756 130.322C300.755 128.563 300.755 125.672 297.736 123.891Z" fill="#670A4A"/>
</g>
<path d="M299.98 113.438V100.805L286.168 106.839L202.115 57.0225C199.116 55.2419 194.24 55.2419 191.221 57.0225L31.9279 151.481L0 161.41V174.042V174.063C0.0204012 175.216 0.754845 176.368 2.24413 177.269L93.4784 231.358C96.4774 233.139 101.353 233.139 104.373 231.358L297.735 116.706C299.266 115.805 300 114.611 299.98 113.438Z" fill="#F2F2F2"/>
<path d="M0 161.41V174.042V174.063C0.0204012 175.216 0.754845 176.368 2.24413 177.269L93.4784 231.358C94.9881 232.259 96.9466 232.699 98.9255 232.699V174.985L46.2496 142.996L31.9279 151.481L0 161.41Z" fill="#DFDFDF"/>
<path d="M286.637 101.12L264.277 87.8593C262.278 86.6652 259.014 86.6652 257.015 87.8593L255.77 88.5925C253.771 89.7866 250.507 89.7866 248.507 88.5925L221.72 72.7133C219.721 71.5192 219.721 69.5919 221.72 68.4188L222.965 67.6856C224.964 66.4915 224.964 64.5642 222.965 63.3911L200.299 49.9629C198.3 48.7689 195.036 48.7689 193.036 49.9629L13.1587 156.676C11.1593 157.87 11.1593 159.797 13.1587 160.971L99.4967 212.127C101.496 213.322 104.76 213.322 106.76 212.127L286.658 105.414C288.636 104.241 288.636 102.314 286.637 101.12Z" fill="#56083E"/>
<path d="M260.646 85.7224L290.371 103.215L286.27 111.008L260.646 95.8197V85.7224Z" fill="#4B0636"/>
<path d="M196.688 57.9023V47.8259L226.597 65.5486L218.089 70.5763L196.688 57.9023Z" fill="#1E3779"/>
<path d="M106.76 212.148L285.923 105.875L264.298 93.0546C262.299 91.8605 259.035 91.8605 257.035 93.0546L255.791 93.7878C253.792 94.9818 250.527 94.9818 248.528 93.7878L221.741 77.9086C219.742 76.7145 219.742 74.7872 221.741 73.6141L222.476 73.1742L221.741 72.7342C219.742 71.5402 219.742 69.6129 221.741 68.4397L222.251 68.1255L200.32 55.1373C198.321 53.9432 195.056 53.9432 193.057 55.1373L13.8936 161.41L99.4971 212.127C101.496 213.322 104.74 213.322 106.76 212.148Z" fill="#8C1A69"/>
<path d="M264.278 93.0337C262.278 91.8396 259.014 91.8396 257.015 93.0337L255.77 93.7669C253.771 94.961 250.507 94.961 248.508 93.7669L221.721 77.8877C219.721 76.6936 219.721 74.7663 221.721 73.5932L222.455 73.1533L221.721 72.7134C219.721 71.5193 219.721 69.592 221.721 68.4189L222.231 68.1046L200.3 55.1164C199.3 54.5298 197.974 54.2156 196.668 54.2156C196.668 54.2156 208.623 85.2198 198.423 117.774C188.895 148.15 133.404 195.662 111.085 209.53L285.883 105.833L264.278 93.0337Z" fill="#670A4A"/>
<path d="M220.211 70.5764V75.7508C220.231 76.6306 220.782 77.3219 221.721 77.9085L248.507 93.7877C249.446 94.3533 250.67 94.6675 252.343 94.6675V88.0268L220.211 70.5764Z" fill="#480533"/>
<path d="M297.736 97.6213L206.502 43.5315C203.503 41.7509 198.627 41.7509 195.607 43.5315L2.26486 158.184C-0.73412 159.965 -0.73412 162.856 2.26486 164.636L93.4991 218.726C96.4981 220.507 101.374 220.507 104.393 218.726L297.756 104.074C300.755 102.293 300.755 99.4019 297.736 97.6213ZM286.638 105.435L106.74 212.148C104.74 213.342 101.476 213.342 99.4767 212.148L13.1591 160.991C11.1598 159.797 11.1598 157.87 13.1591 156.697L193.057 49.9838C195.056 48.7897 198.321 48.7897 200.32 49.9838L222.986 63.4119C224.985 64.606 224.985 66.5333 222.986 67.7064L221.741 68.4396C219.742 69.6337 219.742 71.561 221.741 72.7341L248.528 88.6133C250.527 89.8074 253.792 89.8074 255.791 88.6133L257.035 87.8801C259.035 86.686 262.299 86.686 264.298 87.8801L286.658 101.141C288.637 102.314 288.637 104.241 286.638 105.435Z" fill="#EBEBEB"/>
<g opacity="0.4">
<path opacity="0.4" d="M76.1371 119.325L91.7236 110.065H83.3795L67.793 119.325H76.1371Z" fill="#FAFDFF"/>
<path opacity="0.4" d="M134.77 84.5495L165.923 66.0518H157.619L126.446 84.5495H134.77Z" fill="#FAFDFF"/>
<path opacity="0.4" d="M198.34 49.2717C199.054 49.4183 199.748 49.6278 200.319 49.963L210.193 55.8077H227.228L216.191 49.2507H198.34V49.2717Z" fill="#FAFDFF"/>
<path opacity="0.4" d="M174.899 55.8073H183.203L193.056 49.9625C193.628 49.6274 194.321 49.4179 195.035 49.2712H185.936L174.899 55.8073Z" fill="#FAFDFF"/>
<path opacity="0.4" d="M224.393 66.0518C224.209 66.6383 223.76 67.2249 222.965 67.6858L221.72 68.419C219.721 69.6131 219.721 71.5403 221.72 72.7135L241.632 84.5286H275.661L244.488 66.0518H224.393Z" fill="#FAFDFF"/>
<path opacity="0.4" d="M30.928 146.139L62.0806 127.662H53.7365L22.5635 146.139H30.928Z" fill="#FAFDFF"/>
<path opacity="0.4" d="M98.0475 211.29L66.854 192.792H49.7578L80.9513 211.29H98.0475Z" fill="#FAFDFF"/>
<path opacity="0.4" d="M278.802 110.065L263.236 119.325H272.05L287.636 110.065H278.802Z" fill="#FAFDFF"/>
<path opacity="0.4" d="M249.18 127.662L218.007 146.139H226.8L257.973 127.662H249.18Z" fill="#FAFDFF"/>
<path opacity="0.4" d="M52.7776 184.454L37.1707 175.216H20.1152L35.7018 184.454H52.7776Z" fill="#FAFDFF"/>
<path opacity="0.4" d="M168.983 175.216L153.417 184.454H162.169L177.756 175.216H168.983Z" fill="#FAFDFF"/>
<path opacity="0.4" d="M139.361 192.792L108.188 211.29H116.94L148.113 192.792H139.361Z" fill="#FAFDFF"/>
</g>
<path d="M234.491 70.2412L247.487 77.9503C248.609 78.6207 248.793 79.5634 247.936 80.0871C247.059 80.6108 245.447 80.4851 244.345 79.8357L231.35 72.1266C230.228 71.4562 230.044 70.5135 230.901 69.9898C231.758 69.4451 233.369 69.5708 234.491 70.2412Z" fill="#670A4A"/>
<path d="M58.3877 206.492C58.3877 207.037 58.7549 207.707 59.2241 207.979C59.6934 208.252 60.0606 208.042 60.0606 207.477C60.0606 206.932 59.6934 206.262 59.2241 205.989C58.7549 205.738 58.3877 205.947 58.3877 206.492Z" fill="#B492A9"/>
<path d="M62.5088 208.943C62.5088 209.488 62.876 210.158 63.3452 210.431C63.8145 210.703 64.1817 210.472 64.1817 209.928C64.1817 209.383 63.8145 208.713 63.3452 208.44C62.876 208.168 62.5088 208.398 62.5088 208.943Z" fill="#B492A9"/>
<path d="M66.6299 211.394C66.6299 211.939 66.9971 212.609 67.4663 212.882C67.9356 213.154 68.3028 212.944 68.3028 212.379C68.3028 211.834 67.9356 211.164 67.4663 210.891C67.0175 210.619 66.6299 210.829 66.6299 211.394Z" fill="#B492A9"/>
<path d="M70.751 213.824C70.751 214.369 71.1182 215.039 71.5874 215.311C72.0567 215.584 72.4239 215.353 72.4239 214.809C72.4239 214.264 72.0567 213.594 71.5874 213.321C71.1386 213.07 70.751 213.279 70.751 213.824Z" fill="#B492A9"/>
<path d="M74.8926 216.275C74.8926 216.82 75.2598 217.49 75.729 217.763C76.1983 218.035 76.5655 217.804 76.5655 217.26C76.5655 216.715 76.1983 216.045 75.729 215.772C75.2598 215.5 74.8926 215.731 74.8926 216.275Z" fill="#B492A9"/>
<path d="M79.0137 218.726C79.0137 219.271 79.3809 219.941 79.8501 220.214C80.3194 220.486 80.6866 220.255 80.6866 219.711C80.6866 219.166 80.3194 218.496 79.8501 218.223C79.3809 217.951 79.0137 218.161 79.0137 218.726Z" fill="#B492A9"/>
<path d="M83.1348 221.156C83.1348 221.701 83.502 222.371 83.9712 222.643C84.4404 222.916 84.8077 222.685 84.8077 222.141C84.8077 221.596 84.4404 220.926 83.9712 220.653C83.502 220.402 83.1348 220.611 83.1348 221.156Z" fill="#B492A9"/>
<path d="M58.2861 202.072C58.2861 202.617 58.6534 203.287 59.1226 203.559C59.5918 203.832 59.959 203.601 59.959 203.057C59.959 202.512 59.5918 201.842 59.1226 201.569C58.6534 201.318 58.2861 201.527 58.2861 202.072Z" fill="#B492A9"/>
<path d="M62.4072 204.523C62.4072 205.068 62.7744 205.738 63.2437 206.01C63.7129 206.283 64.0801 206.052 64.0801 205.508C64.0801 204.963 63.7129 204.293 63.2437 204.02C62.7744 203.748 62.4072 203.978 62.4072 204.523Z" fill="#B492A9"/>
<path d="M66.5283 206.974C66.5283 207.519 66.8955 208.189 67.3648 208.461C67.834 208.734 68.2012 208.503 68.2012 207.959C68.2012 207.414 67.834 206.743 67.3648 206.471C66.8955 206.199 66.5283 206.429 66.5283 206.974Z" fill="#B492A9"/>
<path d="M70.6494 209.425C70.6494 209.97 71.0166 210.64 71.4859 210.912C71.9551 211.185 72.3223 210.954 72.3223 210.41C72.3223 209.865 71.9551 209.195 71.4859 208.922C71.0166 208.65 70.6494 208.859 70.6494 209.425Z" fill="#B492A9"/>
<path d="M74.7705 211.855C74.7705 212.4 75.1377 213.07 75.607 213.342C76.0762 213.615 76.4434 213.405 76.4434 212.84C76.4434 212.295 76.0762 211.625 75.607 211.352C75.1581 211.101 74.7705 211.31 74.7705 211.855Z" fill="#B492A9"/>
<path d="M78.8916 214.306C78.8916 214.851 79.2588 215.521 79.7281 215.793C80.1973 216.066 80.5645 215.835 80.5645 215.291C80.5645 214.746 80.1973 214.076 79.7281 213.803C79.2792 213.531 78.8916 213.761 78.8916 214.306Z" fill="#B492A9"/>
<path d="M83.0127 216.757C83.0127 217.302 83.3799 217.972 83.8491 218.244C84.3184 218.517 84.6856 218.286 84.6856 217.742C84.6856 217.197 84.3184 216.527 83.8491 216.254C83.4003 215.982 83.0127 216.191 83.0127 216.757Z" fill="#B492A9"/>
<path d="M9.89453 177.729C9.89453 178.274 10.2618 178.944 10.731 179.217C11.2002 179.489 11.5674 179.259 11.5674 178.714C11.5674 178.169 11.2002 177.499 10.731 177.227C10.2618 176.954 9.89453 177.185 9.89453 177.729Z" fill="#B492A9"/>
<path d="M14.0156 180.18C14.0156 180.725 14.3828 181.395 14.8521 181.668C15.3213 181.94 15.6885 181.71 15.6885 181.165C15.6885 180.62 15.3213 179.95 14.8521 179.678C14.3828 179.405 14.0156 179.636 14.0156 180.18Z" fill="#B492A9"/>
<path d="M18.1367 182.631C18.1367 183.176 18.5039 183.846 18.9732 184.119C19.4424 184.391 19.8096 184.161 19.8096 183.616C19.8096 183.071 19.4424 182.401 18.9732 182.129C18.5039 181.856 18.1367 182.066 18.1367 182.631Z" fill="#B492A9"/>
<path d="M22.2578 185.061C22.2578 185.606 22.625 186.276 23.0943 186.549C23.5635 186.821 23.9307 186.591 23.9307 186.046C23.9307 185.501 23.5635 184.831 23.0943 184.559C22.6454 184.307 22.2578 184.517 22.2578 185.061Z" fill="#B492A9"/>
<path d="M26.3789 187.513C26.3789 188.057 26.7461 188.728 27.2154 189C27.6846 189.272 28.0518 189.063 28.0518 188.497C28.0518 187.952 27.6846 187.282 27.2154 187.01C26.7665 186.737 26.3789 186.968 26.3789 187.513Z" fill="#B492A9"/>
<path d="M30.5 189.963C30.5 190.508 30.8672 191.179 31.3365 191.451C31.8057 191.723 32.1729 191.493 32.1729 190.948C32.1729 190.403 31.8057 189.733 31.3365 189.461C30.8876 189.188 30.5 189.398 30.5 189.963Z" fill="#B492A9"/>
<path d="M34.6416 192.393C34.6416 192.938 35.0088 193.608 35.4781 193.881C35.9473 194.153 36.3145 193.923 36.3145 193.378C36.3145 192.833 35.9473 192.163 35.4781 191.891C35.0088 191.639 34.6416 191.849 34.6416 192.393Z" fill="#B492A9"/>
<path d="M9.79297 173.309C9.79297 173.854 10.1602 174.524 10.6294 174.797C11.0986 175.069 11.4659 174.838 11.4659 174.294C11.4659 173.749 11.0986 173.079 10.6294 172.806C10.1602 172.555 9.79297 172.765 9.79297 173.309Z" fill="#B492A9"/>
<path d="M13.9141 175.76C13.9141 176.305 14.2813 176.975 14.7505 177.248C15.2197 177.52 15.587 177.29 15.587 176.745C15.587 176.2 15.2197 175.53 14.7505 175.258C14.2813 174.985 13.9141 175.216 13.9141 175.76Z" fill="#B492A9"/>
<path d="M18.0352 178.211C18.0352 178.756 18.4024 179.426 18.8716 179.699C19.3408 179.971 19.7081 179.74 19.7081 179.196C19.7081 178.651 19.3408 177.981 18.8716 177.708C18.4024 177.436 18.0352 177.667 18.0352 178.211Z" fill="#B492A9"/>
<path d="M22.1562 180.641C22.1562 181.186 22.5235 181.856 22.9927 182.129C23.4619 182.401 23.8292 182.171 23.8292 181.626C23.8292 181.081 23.4619 180.432 22.9927 180.16C22.5235 179.887 22.1562 180.097 22.1562 180.641Z" fill="#B492A9"/>
<path d="M26.2773 183.092C26.2773 183.637 26.6446 184.307 27.1138 184.58C27.583 184.852 27.9502 184.622 27.9502 184.077C27.9502 183.532 27.583 182.862 27.1138 182.59C26.6446 182.317 26.2773 182.548 26.2773 183.092Z" fill="#B492A9"/>
<path d="M30.3984 185.543C30.3984 186.088 30.7657 186.758 31.2349 187.031C31.7041 187.303 32.0713 187.073 32.0713 186.528C32.0713 185.983 31.7041 185.313 31.2349 185.04C30.7861 184.768 30.3984 184.999 30.3984 185.543Z" fill="#B492A9"/>
<path d="M34.5195 187.994C34.5195 188.539 34.8868 189.209 35.356 189.482C35.8252 189.754 36.1924 189.524 36.1924 188.979C36.1924 188.434 35.8252 187.764 35.356 187.492C34.9072 187.219 34.5195 187.429 34.5195 187.994Z" fill="#B492A9"/>
<path d="M249.446 80.9042C248.609 81.4069 248.609 82.224 249.446 82.7267C250.282 83.2295 251.649 83.2295 252.506 82.7267C253.342 82.224 253.342 81.4069 252.506 80.9042C251.649 80.4014 250.282 80.4014 249.446 80.9042Z" fill="#E3B505"/>
<g opacity="0.6">
<path opacity="0.6" d="M186.875 35.9691C186.875 26.3117 180.204 22.3524 172.064 27.1916L171.921 27.2754C163.781 32.1145 156.579 43.9506 155.927 53.587L155.274 63.2025C154.927 68.5235 149.949 75.6042 144.155 79.0398C138.382 82.4754 133.689 79.6264 133.669 72.6923V64.0824C133.669 56.3104 128.303 53.1262 121.734 57.0017C115.512 60.6887 109.922 69.7176 109.33 77.0706L108.433 88.2782C107.882 95.1494 102.659 103.613 96.8447 107.069L95.9062 107.614C90.0919 111.07 84.7671 108.263 84.0939 101.413L79.3608 53.5242C78.4224 43.9087 70.9759 39.9913 62.8154 44.8304L62.6726 44.9142C54.5325 49.7534 47.8613 61.6104 47.8613 71.2678V171.424L186.875 89.0324V35.9691Z" fill="#E3B505"/>
<path opacity="0.6" d="M186.875 89.0324V35.9691C186.875 26.3117 180.204 22.3524 172.064 27.1916L171.921 27.2754C163.781 32.1145 156.579 43.9506 155.927 53.587L155.274 63.2025C154.927 68.5235 149.949 75.6042 144.155 79.0398C138.382 82.4754 133.689 79.6264 133.669 72.6923V64.0824C133.669 56.3104 128.303 53.1262 121.734 57.0017C115.512 60.6887 109.922 69.7176 109.33 77.0706L108.433 88.2782C107.882 95.1494 102.659 103.613 96.8447 107.069L95.9062 107.614C90.0919 111.07 84.7671 108.263 84.0939 101.413L79.3608 53.5242C78.4224 43.9087 70.9759 39.9913 62.8154 44.8304L62.6726 44.9142C54.5325 49.7534 47.8613 61.6104 47.8613 71.2678V171.424" stroke="#E9FFFB" stroke-miterlimit="10" stroke-linecap="round"/>
</g>
<path opacity="0.8" d="M194.056 84.5703C193.505 91.4834 188.323 99.8839 182.468 103.319C176.511 106.839 170.921 104.074 169.86 97.2234C169.86 97.2234 169.167 92.7403 168.33 87.2308C167.494 81.7213 162.781 79.6264 157.803 82.5802C152.846 85.5339 147.99 93.4735 146.95 100.324L144.848 114.339C143.828 121.189 139.156 129.024 134.423 131.81C129.69 134.617 125.161 131.307 124.304 124.436L120.285 100.449C118.674 90.8968 110.738 87.0632 102.557 91.9233L102.414 92.0071C94.2329 96.8672 87.6025 108.661 87.6025 118.361V194.97L226.616 112.558V12.4227C226.616 2.7234 220.639 -1.61299 213.274 2.74435C205.909 7.1017 199.299 18.4769 198.544 28.1343L194.056 84.5703Z" fill="#E3B505"/>
<path d="M226.596 112.579V12.4227C226.596 2.7234 220.619 -1.61299 213.254 2.74435C205.889 7.1017 199.279 18.4769 198.524 28.1343L194.056 84.5703C193.505 91.4834 188.323 99.8839 182.468 103.319C176.511 106.839 170.921 104.074 169.86 97.2234C169.86 97.2234 169.167 92.7403 168.33 87.2308C167.494 81.7213 162.781 79.6264 157.803 82.5802C152.846 85.5339 147.99 93.4735 146.95 100.324L144.848 114.339C143.828 121.189 139.156 129.024 134.423 131.81C129.69 134.617 125.161 131.307 124.304 124.436L120.285 100.449C118.674 90.8968 110.738 87.0632 102.557 91.9233L102.414 92.0071C94.2329 96.8672 87.6025 108.661 87.6025 118.361V194.97" stroke="#FFCF17" stroke-width="2" stroke-miterlimit="10" stroke-linecap="round"/>
</g>
<defs>
<filter id="filter0_f" x="-9.98438" y="58.4658" width="319.987" height="197.845" filterUnits="userSpaceOnUse" color-interpolation-filters="sRGB">
<feFlood flood-opacity="0" result="BackgroundImageFix"/>
<feBlend mode="normal" in="SourceGraphic" in2="BackgroundImageFix" result="shape"/>
<feGaussianBlur stdDeviation="5" result="effect1_foregroundBlur"/>
</filter>
<clipPath id="clip0">
<rect width="300" height="260" fill="white"/>
</clipPath>
</defs>
</svg>
