<svg width="300" height="260" viewBox="0 0 300 260" fill="none" xmlns="http://www.w3.org/2000/svg">
<g clip-path="url(#clip0)">
<g filter="url(#filter0_d)">
<path d="M112.016 46.4397C116.214 42.3433 125.626 41.1144 132.593 43.8849C138.186 46.1163 140.339 50.9457 137.288 54.4276C135.557 56.4003 132.68 57.7801 129.38 58.4593C127.822 58.7826 127.649 60.0116 129.077 60.4967L157.303 70.1231L174.05 53.7592C175.132 52.7028 177.912 52.8537 178.594 54.0287C179.687 55.926 182.013 57.5969 185.377 58.6102C191.684 60.5074 199.571 59.2785 203.336 55.829C207.469 52.0452 205.305 47.0541 198.63 44.7796C195.633 43.7555 192.247 43.4644 189.088 43.7986C186.978 44.025 185.388 42.6991 186.47 41.6319L203.228 25.268L130.7 0.538947C127.53 -0.539041 123.451 0.0538527 121.591 1.87565L79.041 43.4321L107.31 53.0801C108.727 53.5652 110.502 52.8861 110.231 51.959C109.712 50.1156 110.253 48.1645 112.016 46.4397Z" fill="#E4D2DF"/>
<path opacity="0.95" d="M134.454 59.5695C136.423 58.6748 138.067 57.5105 139.268 56.1523C141.053 54.1257 141.691 51.614 141.085 49.0915C140.296 45.8252 137.559 43.0439 133.567 41.4593C130.808 40.3598 127.616 39.7776 124.349 39.7776C118.55 39.7776 113.249 41.5671 110.177 44.5747C108.446 46.2671 107.494 48.283 107.418 50.3527L83.9199 42.3325L123.429 3.74049C124.003 3.17994 125.42 2.61938 127.292 2.61938C128.2 2.61938 129.077 2.75952 129.845 3.01824L198.338 26.3782L184.63 39.7776C183.538 40.8448 183.202 42.3433 183.754 43.6907C184.436 45.3616 186.351 46.4504 188.612 46.4504C188.86 46.4504 189.109 46.4396 189.358 46.4073C190.094 46.3318 190.84 46.2887 191.587 46.2887C193.761 46.2887 195.903 46.6229 197.775 47.2589C201.075 48.38 202.514 50.0509 202.762 51.2259C202.946 52.099 202.535 53.0046 201.551 53.9101C199.549 55.7426 195.774 56.8853 191.684 56.8853C189.748 56.8853 187.822 56.6158 186.123 56.1092C183.57 55.3438 181.655 54.1149 180.865 52.7351C180.043 51.2906 178.301 50.4389 176.203 50.4389C174.612 50.4389 173.152 50.9672 172.211 51.8942L156.61 67.1262L134.454 59.5695Z" fill="url(#paint0_linear)"/>
<path opacity="0.95" d="M191.598 46.2887C190.851 46.2887 190.105 46.3318 189.369 46.4073C189.109 46.4396 188.861 46.4504 188.623 46.4504C186.361 46.4504 184.447 45.3724 183.765 43.6908C183.733 43.6153 183.711 43.5291 183.689 43.4536C183.43 44.2298 183.44 45.0598 183.765 45.8467C184.447 47.5176 186.361 48.6064 188.623 48.6064C188.871 48.6064 189.12 48.5956 189.369 48.5633C190.105 48.4878 190.851 48.4447 191.598 48.4447C193.772 48.4447 195.914 48.7789 197.786 49.4149C200.501 50.342 201.951 51.6355 202.514 52.7243C202.784 52.2177 202.871 51.7218 202.773 51.2259C202.524 50.0401 201.086 48.38 197.786 47.2589C195.914 46.6229 193.772 46.2887 191.598 46.2887Z" fill="#670A4A"/>
<path opacity="0.95" d="M139.267 58.3191C140.869 56.4973 141.539 54.2874 141.226 52.0344C141.009 53.522 140.349 54.9342 139.267 56.1631C138.067 57.5214 136.422 58.6856 134.453 59.5803L136.855 60.3996C137.774 59.7636 138.597 59.0737 139.267 58.3191Z" fill="#670A4A"/>
<path opacity="0.95" d="M123.44 5.89647C124.014 5.33591 125.431 4.77536 127.302 4.77536C128.211 4.77536 129.088 4.9155 129.856 5.17422L196.704 27.9844L198.348 26.3782L129.856 3.01824C129.088 2.75952 128.211 2.61938 127.302 2.61938C125.431 2.61938 124.014 3.17994 123.44 3.74049L83.9307 42.3325L85.5751 42.893L123.44 5.89647Z" fill="#670A4A"/>
<path d="M189.088 43.8094C192.247 43.4752 195.633 43.7663 198.63 44.7904C199.842 45.2108 200.913 45.7175 201.811 46.2888L203.217 44.9198V25.2788L186.459 41.6427C185.377 42.7099 186.978 44.025 189.088 43.8094Z" fill="#DFDFDF"/>
<path d="M205.327 52.5626C205.099 53.6945 204.461 54.8156 203.325 55.8504C199.56 59.3 191.674 60.5181 185.366 58.6317C182.002 57.6183 179.676 55.9475 178.583 54.0502C177.912 52.8752 175.132 52.7243 174.05 53.7807L157.303 70.1338L129.077 60.5074C127.649 60.0223 127.822 58.7934 129.38 58.47C132.68 57.7908 135.557 56.411 137.288 54.4383C140.339 50.9672 138.186 46.127 132.593 43.8956C125.637 41.1251 116.214 42.3433 112.016 46.4504C110.253 48.1752 109.701 50.1263 110.231 51.9697C110.502 52.8968 108.727 53.5759 107.31 53.0908L79.041 43.4428V63.0622L107.31 72.7102C108.727 73.1953 110.502 72.5162 110.231 71.5891C109.701 69.7457 110.253 67.8053 112.016 66.0698C115.37 62.7927 122.056 61.359 128.158 62.3292V78.8871C127.974 79.3398 128.255 79.8573 129.066 80.1268L157.292 89.7532L174.039 73.3893C175.121 72.3329 177.901 72.4838 178.572 73.6588C179.665 75.5561 181.991 77.227 185.355 78.2403C191.663 80.1375 199.549 78.9086 203.314 75.4591C205.045 73.8744 205.662 72.0742 205.316 70.3494V52.5626H205.327Z" fill="url(#paint1_linear)"/>
<path d="M176.581 72.7102V53.08C175.64 53.0046 174.623 53.2201 174.061 53.7699L157.303 70.1338V89.7639L174.05 73.4001C174.613 72.8503 175.629 72.6347 176.581 72.7102Z" fill="#DFDFDF"/>
<path d="M174.667 73.012C174.634 73.0228 174.591 73.0336 174.559 73.0552C174.58 73.0336 174.624 73.0228 174.667 73.012Z" fill="url(#paint2_linear)"/>
<path d="M175.229 72.8179C175.207 72.8179 175.186 72.8287 175.175 72.8287C175.186 72.8179 175.207 72.8179 175.229 72.8179Z" fill="url(#paint3_linear)"/>
<path d="M129.077 60.5074C127.649 60.0223 127.822 58.7934 129.38 58.47C132.68 57.7908 135.557 56.411 137.288 54.4383C140.339 50.9672 138.186 46.127 132.593 43.8956C125.637 41.1251 116.214 42.3433 112.016 46.4504C110.253 48.1752 109.701 50.1263 110.231 51.9697C110.502 52.8968 108.727 53.5759 107.31 53.0908L79.041 43.4428V63.0622L107.31 72.7102C108.727 73.1953 110.502 72.5162 110.231 71.5891C109.712 69.7457 110.253 67.7946 112.016 66.0698C115.37 62.7927 122.056 61.359 128.157 62.3292V78.8871C127.974 79.3398 128.255 79.8573 129.066 80.1268L157.292 89.7532V70.1338L129.077 60.5074Z" fill="url(#paint4_linear)"/>
<path d="M205.327 70.3601V52.5625C205.1 53.6944 204.461 54.8155 203.325 55.8504C199.561 59.2999 191.674 60.5181 185.367 58.6316C182.002 57.6183 179.676 55.9474 178.583 54.0501C178.096 53.1877 176.474 52.8859 175.219 53.1877C175.651 53.0799 176.117 53.0476 176.571 53.0907V72.7209C177.447 72.7963 178.259 73.1197 178.583 73.6803C179.676 75.5775 182.002 77.2484 185.367 78.2617C191.674 80.159 199.561 78.9301 203.325 75.4805C205.067 73.8851 205.673 72.0849 205.327 70.3601Z" fill="url(#paint5_linear)"/>
<path d="M174.547 53.425C174.364 53.5221 174.19 53.6299 174.05 53.77C174.19 53.6299 174.364 53.5221 174.547 53.425Z" fill="url(#paint6_linear)"/>
<path d="M175.165 53.1877C174.981 53.231 174.819 53.3067 174.656 53.3717C174.819 53.3067 174.992 53.2418 175.165 53.1877Z" fill="url(#paint7_linear)"/>
<path d="M105.254 52.3794L79.041 43.4321L105.254 52.3794Z" fill="url(#paint8_linear)"/>
<path d="M107.31 72.7102L105.255 72.0095L107.31 72.7102C107.494 72.7749 107.678 72.818 107.862 72.8396C107.678 72.8072 107.494 72.7749 107.31 72.7102Z" fill="url(#paint9_linear)"/>
<path d="M107.959 72.8396C108.121 72.8612 108.273 72.8721 108.424 72.8612C108.273 72.8721 108.121 72.8612 107.959 72.8396Z" fill="url(#paint10_linear)"/>
<path d="M109.452 72.6562C109.408 72.6671 109.398 72.6779 109.452 72.6562V72.6562Z" fill="url(#paint11_linear)"/>
<path d="M128.125 79.0271C128.103 79.1137 128.114 79.2002 128.125 79.2868V79.0271Z" fill="url(#paint12_linear)"/>
<path d="M128.124 59.7097C127.973 59.203 128.405 58.6533 129.368 58.4592C132.668 57.7801 135.546 56.4003 137.277 54.4275C140.328 50.9564 138.175 46.1162 132.581 43.8848C125.625 41.1144 116.202 42.3325 112.004 46.4396C110.241 48.1644 109.689 50.1156 110.219 51.9589C110.349 52.4117 109.992 52.7998 109.44 53.0262V72.6563C109.614 72.5701 110.382 72.1497 110.219 71.5999C109.7 69.7565 110.241 67.8054 112.004 66.0806C115.347 62.8143 122.022 61.3806 128.113 62.34V59.7097H128.124Z" fill="url(#paint13_linear)"/>
<path d="M186.145 42.2679C186.188 42.0847 186.286 41.9014 186.47 41.7289L203.228 25.3651L202.946 25.2681L186.481 41.3624C186.167 41.6535 186.08 41.9661 186.145 42.2679Z" fill="white"/>
<path d="M110.231 52.0344C110.015 52.7675 108.533 53.2094 107.31 52.789L79.3223 43.238L79.041 43.5183L107.31 53.1663C108.727 53.6406 110.502 52.9723 110.231 52.0344Z" fill="white"/>
<path d="M138.662 50.8055C138.76 48.0351 136.531 45.1676 132.593 43.6045C125.637 40.8341 116.214 42.0522 112.016 46.1594C110.62 47.5176 110.004 49.016 110.047 50.4929C110.112 49.1346 110.739 47.7764 112.016 46.5259C116.214 42.4295 125.626 41.2006 132.593 43.9711C136.358 45.4695 138.554 48.1536 138.662 50.8055Z" fill="white"/>
<path d="M203.336 55.5488C199.571 58.9984 191.685 60.2165 185.377 58.3301C182.013 57.3167 179.687 55.6459 178.594 53.7486C177.923 52.5736 175.143 52.4227 174.061 53.4791L157.303 69.843L129.077 60.2165C128.536 60.0333 128.233 59.7422 128.136 59.4404C128.028 59.8716 128.32 60.3351 129.077 60.5938L157.303 70.2203L174.05 53.8564C175.132 52.8 177.912 52.9509 178.583 54.1259C179.676 56.0232 182.002 57.694 185.366 58.7073C191.674 60.6046 199.56 59.3757 203.325 55.9261C204.872 54.5032 205.543 52.9078 205.413 51.3555C205.424 52.7892 204.764 54.2445 203.336 55.5488Z" fill="white"/>
</g>
<g filter="url(#filter1_d)">
<path d="M82.8054 106.246C76.92 102.861 77.1472 97.2991 83.5086 94.1298C88.6258 91.5857 97.2807 91.6181 102.387 94.2053C105.286 95.6713 106.909 97.6333 107.255 99.6383C107.418 100.587 109.452 100.997 110.62 100.328L133.685 87.0582L110.209 73.551C108.694 72.6778 109.635 71.1686 111.767 71.0932C115.218 70.9746 118.604 70.1014 121.125 68.4845C125.842 65.4553 125.701 60.7445 120.811 57.7693C115.445 54.5029 106.509 54.4275 101.056 57.5644C98.6113 58.9766 97.2807 60.7876 97.0859 62.631C96.9561 63.8599 94.338 64.4097 92.8126 63.5365L69.3362 50.0293L10.061 84.1261C7.47539 85.6137 7.48621 88.0392 10.0935 89.5376L69.7365 123.85L92.8342 110.558C93.9918 109.89 93.2886 108.737 91.655 108.65C88.431 108.467 85.2828 107.669 82.8054 106.246Z" fill="url(#paint14_linear)"/>
<path opacity="0.95" d="M11.4143 87.2737C11.0897 87.0797 10.9166 86.918 10.8301 86.821C10.9166 86.724 11.0789 86.573 11.3926 86.3898L69.3479 53.0476L91.5153 65.8002C92.4024 66.3069 93.4734 66.5764 94.6094 66.5764C97.3789 66.5764 99.4886 65.0672 99.7158 62.9004C99.8348 61.8548 100.808 60.7337 102.388 59.8174C104.541 58.5777 107.592 57.8662 110.751 57.8662C114.072 57.8662 117.242 58.6424 119.449 59.9899C121.028 60.9493 121.937 62.1243 121.948 63.2023C121.959 64.2371 121.169 65.3259 119.709 66.2637C117.685 67.5681 114.829 68.3443 111.681 68.4521C109.269 68.5383 107.408 69.7995 106.943 71.6645C106.542 73.2599 107.31 74.8876 108.901 75.7932L128.439 87.0366L109.517 97.9243C108.663 95.5096 106.596 93.3859 103.578 91.8552C100.722 90.4107 96.9029 89.613 92.8459 89.613C88.8755 89.613 85.1431 90.3783 82.3411 91.7797C78.3706 93.7524 76.0446 96.8032 75.9473 100.123C75.8499 103.357 77.873 106.408 81.4972 108.499C83.2066 109.48 85.1756 110.224 87.3393 110.688L69.7374 120.81L11.4143 87.2737Z" fill="url(#paint15_linear)"/>
<path opacity="0.95" d="M76.0008 101.309C75.9684 101.546 75.9467 101.783 75.9467 102.021C75.8494 105.255 77.8724 108.305 81.4967 110.397C82.6002 111.033 83.8227 111.55 85.1209 111.97L87.3387 110.698C85.1858 110.224 83.206 109.491 81.4967 108.51C78.316 106.677 76.3686 104.101 76.0008 101.309Z" fill="#FFE585"/>
<path opacity="0.95" d="M108.9 75.8148C107.915 75.2543 107.255 74.4134 106.974 73.4756C106.963 73.5079 106.952 73.5403 106.942 73.5726C106.541 75.168 107.309 76.7958 108.9 77.7013L126.794 87.9961L128.438 87.0475L108.9 75.8148Z" fill="#C9A108"/>
<path opacity="0.95" d="M11.4134 87.2737L12.2789 87.7696L69.3362 54.9449L91.5035 67.6975C92.3907 68.2041 93.4617 68.4736 94.5977 68.4736C97.3672 68.4736 99.4769 66.9644 99.704 64.7977C99.8231 63.752 100.797 62.6309 102.376 61.7146C104.529 60.4749 107.58 59.7635 110.739 59.7635C114.06 59.7635 117.23 60.5396 119.437 61.8871C120.573 62.577 121.363 63.3855 121.72 64.1832C121.861 63.8598 121.947 63.5364 121.947 63.213C121.936 62.135 121.017 60.96 119.448 60.0006C117.23 58.6531 114.06 57.877 110.75 57.877C107.591 57.877 104.54 58.5885 102.387 59.8282C100.797 60.7444 99.823 61.8656 99.7149 62.9112C99.4768 65.0672 97.378 66.5871 94.6085 66.5871C93.4725 66.5871 92.4015 66.3176 91.5144 65.811L69.3362 53.0476L11.3809 86.3898C11.0672 86.5623 10.9049 86.724 10.8184 86.821C10.9049 86.918 11.078 87.0797 11.4134 87.2737Z" fill="url(#paint16_linear)"/>
<path d="M121.125 68.4736C118.604 70.0906 115.229 70.9637 111.767 71.0823C109.625 71.1578 108.684 72.667 110.209 73.5401L124.49 81.7544V64.0215C124.219 65.6385 123.116 67.2016 121.125 68.4736Z" fill="#DFDFDF"/>
<path d="M110.621 100.329C109.452 100.997 107.418 100.588 107.256 99.639C106.91 97.6231 105.287 95.672 102.388 94.2059C97.2814 91.6187 88.6157 91.5864 83.5093 94.1304C77.148 97.2997 76.9208 102.862 82.8061 106.247C85.2836 107.67 88.4318 108.468 91.6557 108.651C92.6619 108.705 93.3002 109.168 93.3867 109.664H93.3975V109.686C93.3975 109.707 93.3975 109.718 93.3975 109.74V111.896C96.6864 111.96 99.9536 112.607 102.399 113.847C105.298 115.313 106.921 117.275 107.267 119.28C107.429 120.229 109.463 120.638 110.632 119.97L132.723 107.26L133.697 107.056V87.0588L110.621 100.329Z" fill="#AFB6E5"/>
<path d="M110.621 100.329C109.452 100.997 107.418 100.588 107.256 99.639C106.91 97.6231 105.287 95.672 102.388 94.2059C97.2814 91.6187 88.6157 91.5864 83.5093 94.1304C77.148 97.2997 76.9208 102.862 82.8061 106.247C85.2836 107.67 88.4318 108.468 91.6557 108.651C92.6619 108.705 93.3002 109.168 93.3867 109.664H93.3975V109.686C93.3975 109.707 93.3975 109.718 93.3975 109.74V111.896C96.6864 111.96 99.9536 112.607 102.399 113.847C105.298 115.313 106.921 117.275 107.267 119.28C107.429 120.229 109.463 120.638 110.632 119.97L132.723 107.26L133.697 107.056V87.0588L110.621 100.329Z" fill="url(#paint17_linear)"/>
<path d="M10.094 89.5376C8.81736 88.8046 8.15742 87.8452 8.13578 86.875V106.096L8.15742 106.085C7.97351 107.184 8.62262 108.327 10.094 109.168L69.7369 143.48V123.85L10.094 89.5376Z" fill="url(#paint18_linear)"/>
<path d="M92.835 110.558L69.7373 123.85V143.48L92.835 130.188C93.1921 129.984 93.3543 129.725 93.3868 129.466H93.3976V129.358C93.3976 129.337 93.3976 129.326 93.3976 129.305V111.884V109.728C93.4192 110.019 93.2461 110.321 92.835 110.558Z" fill="url(#paint19_linear)"/>
<path d="M92.835 110.558L69.7373 123.85V143.48L92.835 130.188C93.1921 129.984 93.3543 129.725 93.3868 129.466H93.3976V129.358C93.3976 129.337 93.3976 129.326 93.3976 129.305V111.884V109.728C93.4192 110.019 93.2461 110.321 92.835 110.558Z" fill="#C4C4C4"/>
<path d="M121.125 68.2581C118.605 69.8751 115.229 70.7483 111.767 70.8668C110.231 70.9207 109.312 71.7184 109.485 72.4946C109.625 71.8586 110.48 71.298 111.767 71.2549C115.219 71.1363 118.605 70.2632 121.125 68.6462C123.538 67.1047 124.663 65.1212 124.555 63.1484C124.512 64.981 123.387 66.8136 121.125 68.2581Z" fill="white"/>
<path d="M92.8345 110.343L69.7368 123.634L10.0938 89.3221C8.87126 88.6214 8.22215 87.7051 8.14642 86.7888C8.05987 87.8345 8.69816 88.9017 10.0938 89.6994L69.7368 124.012L92.8345 110.72C93.3105 110.451 93.4511 110.095 93.3646 109.761C93.2997 109.966 93.1266 110.17 92.8345 110.343Z" fill="white"/>
<path d="M110.62 100.113C109.452 100.781 107.418 100.371 107.256 99.4227C106.909 97.4069 105.287 95.4557 102.387 93.9897C97.2808 91.4025 88.6151 91.3702 83.5087 93.9142C80.1874 95.5743 78.5538 97.8812 78.5754 100.199C78.7269 98.0106 80.3605 95.8654 83.5087 94.2915C88.6259 91.7475 97.2808 91.7798 102.387 94.367C105.287 95.833 106.909 97.795 107.256 99.8C107.418 100.749 109.452 101.158 110.62 100.49L133.685 87.2199L133.35 87.0259L110.62 100.113Z" fill="white"/>
</g>
<g filter="url(#filter2_d)">
<path d="M217.184 65.5848C223.069 68.9696 222.842 74.5321 216.48 77.7013C211.363 80.2454 202.708 80.2131 197.602 77.6259C194.703 76.1598 193.08 74.1979 192.734 72.1928C192.571 71.2442 190.537 70.8346 189.369 71.5029L166.304 84.7729L189.78 98.2801C191.295 99.1533 190.353 100.662 188.222 100.738C184.771 100.857 181.385 101.73 178.864 103.347C174.147 106.376 174.288 111.087 179.178 114.062C184.544 117.328 193.48 117.404 198.933 114.267C201.378 112.855 202.708 111.044 202.903 109.2C203.033 107.971 205.651 107.421 207.176 108.295L230.653 121.802L289.917 87.7051C292.503 86.2174 292.492 83.792 289.885 82.2936L230.242 47.9812L207.144 61.2728C205.986 61.9412 206.69 63.0946 208.323 63.1808C211.569 63.3533 214.706 64.1618 217.184 65.5848Z" fill="url(#paint20_linear)"/>
<path d="M217.184 65.5848C223.069 68.9696 222.842 74.5321 216.48 77.7013C211.363 80.2454 202.708 80.2131 197.602 77.6259C194.703 76.1598 193.08 74.1979 192.734 72.1928C192.571 71.2442 190.537 70.8346 189.369 71.5029L166.304 84.7729L189.78 98.2801C191.295 99.1533 190.353 100.662 188.222 100.738C184.771 100.857 181.385 101.73 178.864 103.347C174.147 106.376 174.288 111.087 179.178 114.062C184.544 117.328 193.48 117.404 198.933 114.267C201.378 112.855 202.708 111.044 202.903 109.2C203.033 107.971 205.651 107.421 207.176 108.295L230.653 121.802L289.917 87.7051C292.503 86.2174 292.492 83.792 289.885 82.2936L230.242 47.9812L207.144 61.2728C205.986 61.9412 206.69 63.0946 208.323 63.1808C211.569 63.3533 214.706 64.1618 217.184 65.5848Z" fill="#E4D2DF"/>
<path opacity="0.95" d="M208.913 106.031C208.026 105.525 206.955 105.255 205.83 105.255C203.06 105.255 200.951 106.764 200.723 108.92C200.604 109.966 199.631 111.087 198.051 112.003C195.898 113.243 192.847 113.955 189.688 113.955C186.367 113.955 183.197 113.178 180.979 111.831C179.4 110.871 178.491 109.696 178.48 108.618C178.47 107.584 179.27 106.495 180.731 105.557C182.754 104.253 185.61 103.476 188.758 103.358C191.171 103.272 193.031 102.01 193.497 100.145C193.897 98.5501 193.129 96.9223 191.538 96.0168L172 84.7734L190.922 73.8857C191.776 76.3004 193.843 78.424 196.861 79.9548C199.728 81.3993 203.536 82.197 207.604 82.197C211.574 82.197 215.307 81.4316 218.109 80.0302C222.079 78.0575 224.405 75.0068 224.503 71.6866C224.6 68.4526 222.577 65.4019 218.942 63.3106C217.233 62.3297 215.253 61.5858 213.1 61.1223L230.702 51L289.025 84.5578C289.349 84.7518 289.523 84.9135 289.609 85.0105C289.523 85.1075 289.36 85.2585 289.047 85.4417L231.091 118.784L208.913 106.031Z" fill="url(#paint21_linear)"/>
<g opacity="0.5">
<path opacity="0.95" d="M230.263 53.4358L287.255 86.2282L288.619 85.4412C288.932 85.2688 289.095 85.1071 289.181 85.01C289.095 84.913 288.921 84.7405 288.597 84.5573L230.274 50.9995L212.672 61.1218C213.656 61.3374 214.587 61.6069 215.485 61.9303L230.263 53.4358Z" fill="#670A4A"/>
<path opacity="0.95" d="M190.473 76.3215C191.327 78.7362 193.394 80.8599 196.412 82.3906C199.279 83.8351 203.087 84.6328 207.155 84.6328C211.125 84.6328 214.858 83.8675 217.66 82.4661C221.619 80.4934 223.956 77.4427 224.054 74.1224C224.064 73.6374 224.032 73.163 223.945 72.6887C223.459 75.6209 221.219 78.2619 217.649 80.0406C214.847 81.442 211.115 82.2074 207.144 82.2074C203.076 82.2074 199.268 81.4097 196.401 79.9651C193.383 78.4344 191.316 76.3108 190.462 73.8961L171.54 84.7838L173.65 86.0019L190.473 76.3215Z" fill="#B73E91"/>
<path opacity="0.95" d="M180.292 107.982C182.315 106.678 185.171 105.901 188.32 105.783C190.732 105.697 192.593 104.435 193.058 102.57C193.231 101.87 193.166 101.158 192.928 100.511C192.323 102.161 190.57 103.271 188.331 103.347C185.182 103.454 182.337 104.241 180.303 105.546C178.843 106.484 178.042 107.572 178.053 108.607C178.053 108.995 178.183 109.394 178.41 109.793C178.767 109.168 179.405 108.542 180.292 107.982Z" fill="#310423"/>
</g>
<path d="M216.48 77.7013C222.842 74.532 223.069 68.9696 217.183 65.5847C214.706 64.1617 211.558 63.3532 208.334 63.1808C207.295 63.1269 206.635 62.631 206.603 62.1028L206.57 62.1136V79.577C210.162 79.6524 213.808 79.0272 216.48 77.7013Z" fill="#DFDFDF"/>
<path d="M291.865 104.543L291.908 104.533V84.9023L291.865 84.9131C291.908 85.9156 291.27 86.929 289.939 87.6943L230.675 121.791V141.421L289.939 107.324C291.27 106.559 291.908 105.546 291.865 104.543Z" fill="url(#paint22_linear)"/>
<path d="M291.865 104.543L291.908 104.533V84.9023L291.865 84.9131C291.908 85.9156 291.27 86.929 289.939 87.6943L230.675 121.791V141.421L289.939 107.324C291.27 106.559 291.908 105.546 291.865 104.543Z" fill="#F7F3F6"/>
<path d="M178.864 103.347C181.385 101.73 184.76 100.857 188.222 100.738C190.353 100.662 191.305 99.1533 189.78 98.2801L166.304 84.7729V104.403L175.445 109.664L175.543 109.631C175.045 107.421 176.138 105.104 178.864 103.347Z" fill="#DFDFDF"/>
<path d="M207.618 108.428C206.872 107.997 205.855 107.911 205 108.083V127.713C205.855 127.541 206.872 127.627 207.618 128.058L231.094 141.566V121.935L207.618 108.428Z" fill="#DFDFDF"/>
<path d="M202.914 109.189C202.708 111.033 201.389 112.855 198.943 114.256C193.491 117.393 184.555 117.328 179.189 114.051C177.133 112.801 175.921 111.238 175.554 109.621L175.456 109.653V127.828C175.283 129.93 176.527 132.064 179.189 133.681C184.555 136.948 193.491 137.023 198.943 133.886C201.389 132.474 202.719 130.663 202.914 128.82C202.979 128.194 203.693 127.742 204.569 127.569V107.939C203.682 108.122 202.979 108.564 202.914 109.189Z" fill="url(#paint23_linear)"/>
<path d="M202.914 109.189C202.708 111.033 201.389 112.855 198.943 114.256C193.491 117.393 184.555 117.328 179.189 114.051C177.133 112.801 175.921 111.238 175.554 109.621L175.456 109.653V127.828C175.283 129.93 176.527 132.064 179.189 133.681C184.555 136.948 193.491 137.023 198.943 133.886C201.389 132.474 202.719 130.663 202.914 128.82C202.979 128.194 203.693 127.742 204.569 127.569V107.939C203.682 108.122 202.979 108.564 202.914 109.189Z" fill="url(#paint24_linear)"/>
<path d="M208.334 63.3426C211.558 63.5151 214.706 64.3236 217.183 65.7465C220.018 67.3743 221.413 69.5087 221.413 71.6431C221.554 69.4117 220.147 67.1587 217.183 65.4447C214.706 64.0217 211.558 63.2132 208.334 63.0407C207.36 62.9868 206.732 62.5557 206.613 62.0706C206.484 62.6527 207.165 63.2779 208.334 63.3426Z" fill="white"/>
<path d="M289.928 87.5543L230.663 121.651L207.187 108.144C205.661 107.271 203.043 107.82 202.913 109.049C202.708 110.893 201.388 112.715 198.943 114.116C193.49 117.253 184.554 117.177 179.188 113.911C176.787 112.445 175.532 110.569 175.434 108.672C175.402 110.666 176.646 112.671 179.188 114.213C184.554 117.479 193.49 117.555 198.943 114.418C201.388 113.006 202.719 111.195 202.913 109.351C203.043 108.122 205.661 107.573 207.187 108.446L230.663 121.953L289.928 87.8561C291.291 87.08 291.918 86.0343 291.853 85.0103C291.788 85.9481 291.161 86.8536 289.928 87.5543Z" fill="white"/>
<path d="M190.516 99.315C190.591 98.9054 190.375 98.4742 189.791 98.1292L166.574 84.7729L166.314 84.9239L189.791 98.4311C190.224 98.7005 190.462 99.0024 190.516 99.315Z" fill="white"/>
</g>
<g filter="url(#filter3_d)">
<path d="M185.345 126.286C180.747 130.242 171.216 131.148 164.541 128.151C159.175 125.736 157.509 120.842 160.906 117.479C162.831 115.571 165.85 114.288 169.204 113.717C170.794 113.447 171.097 112.229 169.712 111.69L142.482 101.147L124.122 116.929C122.932 117.953 120.174 117.695 119.622 116.509C118.724 114.579 116.571 112.833 113.304 111.712C107.191 109.61 99.1963 110.569 95.0961 113.889C90.5955 117.533 92.2508 122.589 98.6878 125.079C101.576 126.2 104.93 126.61 108.122 126.372C110.253 126.221 111.713 127.591 110.513 128.615L92.1426 144.396L162.096 171.486C165.157 172.672 169.29 172.208 171.324 170.462L217.974 130.383L190.711 119.829C189.348 119.301 187.509 119.915 187.682 120.853C188.017 122.696 187.281 124.626 185.345 126.286Z" fill="#E4D2DF"/>
<path opacity="0.95" d="M165.828 169.524C164.822 169.524 163.859 169.362 163.059 169.05L97.1735 143.545L112.222 130.609C113.445 129.563 113.867 128.032 113.336 126.62C112.687 124.885 110.762 123.753 108.436 123.753C108.263 123.753 108.089 123.764 107.916 123.774C107.408 123.807 106.889 123.828 106.38 123.828C103.957 123.828 101.62 123.419 99.6293 122.653C97.1194 121.683 95.4209 120.195 95.1937 118.783C95.0097 117.608 95.9293 116.584 96.7407 115.937C98.8071 114.266 102.464 113.232 106.283 113.232C108.468 113.232 110.599 113.566 112.449 114.202C114.862 115.032 116.615 116.282 117.231 117.619C117.967 119.204 119.817 120.195 122.045 120.195C123.538 120.195 124.88 119.743 125.843 118.923L143.012 104.177L164.249 112.402C162.161 113.221 160.387 114.32 159.056 115.646C157.022 117.662 156.167 120.228 156.643 122.858C157.228 126.07 159.716 128.873 163.459 130.555C166.38 131.87 169.842 132.56 173.445 132.56C178.93 132.56 183.885 130.997 187.054 128.28C189.002 126.609 190.127 124.604 190.343 122.502L212.943 131.256L169.604 168.489C168.868 169.115 167.386 169.524 165.828 169.524Z" fill="url(#paint25_linear)"/>
<g opacity="0.5">
<path opacity="0.95" d="M156.643 122.837C156.611 122.675 156.6 122.524 156.589 122.362C156.492 123.138 156.503 123.925 156.643 124.734C157.228 127.946 159.716 130.749 163.459 132.431C166.38 133.746 169.842 134.436 173.445 134.436C178.93 134.436 183.885 132.873 187.054 130.156C189.002 128.485 190.127 126.48 190.343 124.378L211.429 132.539L212.943 131.234L190.343 122.481C190.127 124.583 189.002 126.588 187.054 128.259C183.895 130.975 178.93 132.539 173.445 132.539C169.831 132.539 166.38 131.849 163.459 130.533C159.716 128.863 157.228 126.049 156.643 122.837Z" fill="#4F0638"/>
<path opacity="0.95" d="M113.423 128.787C113.229 129.466 112.818 130.091 112.223 130.609L97.1738 143.545L98.6884 144.127L112.223 132.495C113.369 131.514 113.802 130.113 113.423 128.787Z" fill="#28031D"/>
<path opacity="0.95" d="M95.3991 119.409C95.7021 118.773 96.243 118.223 96.7406 117.824C98.807 116.153 102.464 115.118 106.283 115.118C108.468 115.118 110.599 115.452 112.449 116.088C114.862 116.918 116.614 118.169 117.231 119.506C117.967 121.09 119.817 122.082 122.045 122.082C123.538 122.082 124.88 121.629 125.843 120.81L143.012 106.063L162.074 113.436C162.756 113.059 163.481 112.693 164.26 112.391L143.023 104.166L125.854 118.913C124.901 119.732 123.549 120.185 122.056 120.185C119.828 120.185 117.988 119.193 117.242 117.608C116.614 116.261 114.873 115.021 112.46 114.191C110.621 113.555 108.49 113.221 106.293 113.221C102.475 113.221 98.8178 114.256 96.7515 115.927C95.9401 116.573 95.0205 117.598 95.2044 118.773C95.2369 118.977 95.3018 119.193 95.3991 119.409Z" fill="#4F0838"/>
</g>
<path d="M171.335 170.462C169.301 172.209 165.168 172.672 162.106 171.486L92.1533 144.396V164.027L162.106 191.116C165.168 192.302 169.301 191.839 171.335 190.092L217.985 150.013V130.383L171.335 170.462Z" fill="url(#paint26_linear)"/>
<path d="M171.335 170.462C169.301 172.209 165.168 172.672 162.106 171.486L92.1533 144.396V164.027L162.106 191.116C165.168 192.302 169.301 191.839 171.335 190.092L217.985 150.013V130.383L171.335 170.462Z" fill="url(#paint27_linear)"/>
<path d="M108.111 126.372C104.92 126.599 101.566 126.2 98.6773 125.079C95.0206 123.667 92.911 121.424 92.5972 119.085V137.551C92.4025 139.2 93.1057 140.85 94.6203 142.273L110.513 128.615C111.703 127.601 110.242 126.221 108.111 126.372Z" fill="url(#paint28_linear)"/>
<path d="M169.203 113.717C165.839 114.288 162.831 115.571 160.905 117.479C157.508 120.842 159.174 125.736 164.54 128.151C166.369 128.97 168.424 129.488 170.523 129.746V112.908C170.372 113.275 169.928 113.598 169.203 113.717Z" fill="#DFDFDF"/>
<g opacity="0.95">
<path opacity="0.95" d="M169.203 113.501C165.838 114.072 162.831 115.355 160.905 117.263C159.607 118.546 159.055 120.055 159.153 121.554C159.207 120.228 159.758 118.934 160.905 117.802C162.831 115.894 165.849 114.611 169.203 114.04C170.274 113.857 170.75 113.242 170.523 112.693C170.371 113.059 169.928 113.383 169.203 113.501Z" fill="white"/>
<path opacity="0.95" d="M187.746 121.726C187.757 121.424 187.746 121.133 187.703 120.832C187.67 120.939 187.66 121.047 187.681 121.155C187.714 121.36 187.724 121.543 187.746 121.726Z" fill="white"/>
<path opacity="0.95" d="M98.6768 125.402C101.565 126.523 104.919 126.933 108.111 126.696C109.528 126.588 110.642 127.17 110.88 127.871C111.183 126.965 109.885 126.027 108.111 126.157C104.919 126.383 101.565 125.984 98.6768 124.863C94.8253 123.375 92.7049 120.961 92.5642 118.492C92.402 121.155 94.5441 123.807 98.6768 125.402Z" fill="white"/>
<path opacity="0.95" d="M171.335 170.236C169.301 171.982 165.168 172.446 162.106 171.26L92.5861 144.342L92.1533 144.72L162.106 171.81C165.168 172.995 169.301 172.532 171.335 170.786L217.985 130.706L217.552 130.533L171.335 170.236Z" fill="white"/>
</g>
</g>
</g>
<defs>
<filter id="filter0_d" x="59.041" y="-9.99854" width="166.397" height="129.762" filterUnits="userSpaceOnUse" color-interpolation-filters="sRGB">
<feFlood flood-opacity="0" result="BackgroundImageFix"/>
<feColorMatrix in="SourceAlpha" type="matrix" values="0 0 0 0 0 0 0 0 0 0 0 0 0 0 0 0 0 0 127 0"/>
<feOffset dy="10"/>
<feGaussianBlur stdDeviation="10"/>
<feColorMatrix type="matrix" values="0 0 0 0 0.403922 0 0 0 0 0.0392157 0 0 0 0 0.290196 0 0 0 0.1 0"/>
<feBlend mode="normal" in2="BackgroundImageFix" result="effect1_dropShadow"/>
<feBlend mode="normal" in="SourceGraphic" in2="effect1_dropShadow" result="shape"/>
</filter>
<filter id="filter1_d" x="-11.873" y="40.0293" width="165.57" height="148.499" filterUnits="userSpaceOnUse" color-interpolation-filters="sRGB">
<feFlood flood-opacity="0" result="BackgroundImageFix"/>
<feColorMatrix in="SourceAlpha" type="matrix" values="0 0 0 0 0 0 0 0 0 0 0 0 0 0 0 0 0 0 127 0"/>
<feOffset dy="10"/>
<feGaussianBlur stdDeviation="10"/>
<feColorMatrix type="matrix" values="0 0 0 0 0.890196 0 0 0 0 0.709804 0 0 0 0 0.0196078 0 0 0 0.15 0"/>
<feBlend mode="normal" in2="BackgroundImageFix" result="effect1_dropShadow"/>
<feBlend mode="normal" in="SourceGraphic" in2="effect1_dropShadow" result="shape"/>
</filter>
<filter id="filter2_d" x="146.304" y="37.9812" width="165.604" height="133.584" filterUnits="userSpaceOnUse" color-interpolation-filters="sRGB">
<feFlood flood-opacity="0" result="BackgroundImageFix"/>
<feColorMatrix in="SourceAlpha" type="matrix" values="0 0 0 0 0 0 0 0 0 0 0 0 0 0 0 0 0 0 127 0"/>
<feOffset dy="10"/>
<feGaussianBlur stdDeviation="10"/>
<feColorMatrix type="matrix" values="0 0 0 0 0.403922 0 0 0 0 0.0392157 0 0 0 0 0.290196 0 0 0 0.1 0"/>
<feBlend mode="normal" in2="BackgroundImageFix" result="effect1_dropShadow"/>
<feBlend mode="normal" in="SourceGraphic" in2="effect1_dropShadow" result="shape"/>
</filter>
<filter id="filter3_d" x="62.1426" y="81.1475" width="185.842" height="150.626" filterUnits="userSpaceOnUse" color-interpolation-filters="sRGB">
<feFlood flood-opacity="0" result="BackgroundImageFix"/>
<feColorMatrix in="SourceAlpha" type="matrix" values="0 0 0 0 0 0 0 0 0 0 0 0 0 0 0 0 0 0 127 0"/>
<feOffset dy="10"/>
<feGaussianBlur stdDeviation="15"/>
<feColorMatrix type="matrix" values="0 0 0 0 0.403922 0 0 0 0 0.0392157 0 0 0 0 0.290196 0 0 0 0.15 0"/>
<feBlend mode="normal" in2="BackgroundImageFix" result="effect1_dropShadow"/>
<feBlend mode="normal" in="SourceGraphic" in2="effect1_dropShadow" result="shape"/>
</filter>
<linearGradient id="paint0_linear" x1="203.817" y1="27.3608" x2="80.0127" y2="42.1062" gradientUnits="userSpaceOnUse">
<stop offset="0.00505051" stop-color="#951B6F"/>
<stop offset="1" stop-color="#670A4A"/>
</linearGradient>
<linearGradient id="paint1_linear" x1="153.964" y1="72.2548" x2="210.266" y2="141.798" gradientUnits="userSpaceOnUse">
<stop offset="0.0354" stop-color="#6B24D6"/>
<stop offset="0.2945" stop-color="#7733DC"/>
<stop offset="0.7943" stop-color="#975CED"/>
<stop offset="1" stop-color="#A56EF4"/>
</linearGradient>
<linearGradient id="paint2_linear" x1="174.609" y1="73.0373" x2="174.63" y2="73.0623" gradientUnits="userSpaceOnUse">
<stop offset="0.0354" stop-color="#6B24D6"/>
<stop offset="0.2945" stop-color="#7733DC"/>
<stop offset="0.7943" stop-color="#975CED"/>
<stop offset="1" stop-color="#A56EF4"/>
</linearGradient>
<linearGradient id="paint3_linear" x1="175.2" y1="72.8218" x2="175.216" y2="72.8408" gradientUnits="userSpaceOnUse">
<stop offset="0.0354" stop-color="#6B24D6"/>
<stop offset="0.2945" stop-color="#7733DC"/>
<stop offset="0.7943" stop-color="#975CED"/>
<stop offset="1" stop-color="#A56EF4"/>
</linearGradient>
<linearGradient id="paint4_linear" x1="79.0551" y1="66.0658" x2="157.275" y2="66.0658" gradientUnits="userSpaceOnUse">
<stop stop-color="#F2F2F2"/>
<stop offset="1" stop-color="#DFDFDF"/>
</linearGradient>
<linearGradient id="paint5_linear" x1="175.224" y1="65.8507" x2="205.414" y2="65.8507" gradientUnits="userSpaceOnUse">
<stop offset="0.369792" stop-color="#F2F2F2"/>
<stop offset="0.505208" stop-color="white"/>
<stop offset="0.859375" stop-color="#DFDFDF"/>
</linearGradient>
<linearGradient id="paint6_linear" x1="174.305" y1="53.6004" x2="174.332" y2="53.6334" gradientUnits="userSpaceOnUse">
<stop offset="0.0354" stop-color="#6B24D6"/>
<stop offset="0.2945" stop-color="#7733DC"/>
<stop offset="0.7943" stop-color="#975CED"/>
<stop offset="1" stop-color="#A56EF4"/>
</linearGradient>
<linearGradient id="paint7_linear" x1="174.935" y1="53.3103" x2="175.03" y2="53.4275" gradientUnits="userSpaceOnUse">
<stop offset="0.0354" stop-color="#6B24D6"/>
<stop offset="0.2945" stop-color="#7733DC"/>
<stop offset="0.7943" stop-color="#975CED"/>
<stop offset="1" stop-color="#A56EF4"/>
</linearGradient>
<linearGradient id="paint8_linear" x1="55.2369" y1="56.1524" x2="130.68" y2="39.1798" gradientUnits="userSpaceOnUse">
<stop offset="0.0354" stop-color="#6B24D6"/>
<stop offset="0.2945" stop-color="#7733DC"/>
<stop offset="0.7943" stop-color="#975CED"/>
<stop offset="1" stop-color="#A56EF4"/>
</linearGradient>
<linearGradient id="paint9_linear" x1="102.872" y1="73.2473" x2="110.413" y2="71.5508" gradientUnits="userSpaceOnUse">
<stop offset="0.0354" stop-color="#6B24D6"/>
<stop offset="0.2945" stop-color="#7733DC"/>
<stop offset="0.7943" stop-color="#975CED"/>
<stop offset="1" stop-color="#A56EF4"/>
</linearGradient>
<linearGradient id="paint10_linear" x1="107.486" y1="73.0126" x2="108.933" y2="72.6882" gradientUnits="userSpaceOnUse">
<stop offset="0.0354" stop-color="#6B24D6"/>
<stop offset="0.2945" stop-color="#7733DC"/>
<stop offset="0.7943" stop-color="#975CED"/>
<stop offset="1" stop-color="#A56EF4"/>
</linearGradient>
<linearGradient id="paint11_linear" x1="109.368" y1="72.6724" x2="109.498" y2="72.6431" gradientUnits="userSpaceOnUse">
<stop offset="0.0354" stop-color="#6B24D6"/>
<stop offset="0.2945" stop-color="#7733DC"/>
<stop offset="0.7943" stop-color="#975CED"/>
<stop offset="1" stop-color="#A56EF4"/>
</linearGradient>
<linearGradient id="paint12_linear" x1="128.042" y1="79.1764" x2="128.221" y2="79.1361" gradientUnits="userSpaceOnUse">
<stop offset="0.0354" stop-color="#6B24D6"/>
<stop offset="0.2945" stop-color="#7733DC"/>
<stop offset="0.7943" stop-color="#975CED"/>
<stop offset="1" stop-color="#A56EF4"/>
</linearGradient>
<linearGradient id="paint13_linear" x1="109.446" y1="57.5163" x2="138.66" y2="57.5163" gradientUnits="userSpaceOnUse">
<stop offset="0.369792" stop-color="#F2F2F2"/>
<stop offset="0.505208" stop-color="white"/>
<stop offset="0.859375" stop-color="#DFDFDF"/>
</linearGradient>
<linearGradient id="paint14_linear" x1="204.674" y1="-70.4552" x2="43.5281" y2="119.985" gradientUnits="userSpaceOnUse">
<stop stop-color="#AFB6E5"/>
<stop offset="0.1449" stop-color="#B6BCE8"/>
<stop offset="0.3485" stop-color="#C8CDF1"/>
<stop offset="0.5808" stop-color="#E5E9FF"/>
<stop offset="0.8551" stop-color="#F5F6FF"/>
<stop offset="1" stop-color="white"/>
</linearGradient>
<linearGradient id="paint15_linear" x1="110" y1="84.5" x2="9.49203" y2="92.9047" gradientUnits="userSpaceOnUse">
<stop stop-color="#FFE585"/>
<stop offset="1" stop-color="#E3B505"/>
</linearGradient>
<linearGradient id="paint16_linear" x1="62.9479" y1="49.5188" x2="67.4583" y2="83.1452" gradientUnits="userSpaceOnUse">
<stop stop-color="#CAA106"/>
<stop offset="1" stop-color="#D6AB0A"/>
</linearGradient>
<linearGradient id="paint17_linear" x1="78.5685" y1="103.67" x2="133.685" y2="103.67" gradientUnits="userSpaceOnUse">
<stop offset="0.369792" stop-color="#F2F2F2"/>
<stop offset="0.505208" stop-color="white"/>
<stop offset="0.859375" stop-color="#DFDFDF"/>
</linearGradient>
<linearGradient id="paint18_linear" x1="8.13804" y1="115.163" x2="69.7237" y2="115.163" gradientUnits="userSpaceOnUse">
<stop stop-color="#F2F2F2"/>
<stop offset="1" stop-color="#DFDFDF"/>
</linearGradient>
<linearGradient id="paint19_linear" x1="74.6349" y1="116.214" x2="103.748" y2="160.157" gradientUnits="userSpaceOnUse">
<stop offset="0.0354" stop-color="#138BBD"/>
<stop offset="0.2257" stop-color="#169AC7"/>
<stop offset="0.5946" stop-color="#1FC3DF"/>
<stop offset="1" stop-color="#2AF6FF"/>
</linearGradient>
<linearGradient id="paint20_linear" x1="166.305" y1="84.8872" x2="291.867" y2="84.8872" gradientUnits="userSpaceOnUse">
<stop offset="0.0354" stop-color="#9F19AB"/>
<stop offset="0.2438" stop-color="#AE25B1"/>
<stop offset="0.6455" stop-color="#D744BF"/>
<stop offset="1" stop-color="#FF63CE"/>
</linearGradient>
<linearGradient id="paint21_linear" x1="290.61" y1="76.9984" x2="167.94" y2="90.7531" gradientUnits="userSpaceOnUse">
<stop offset="0.00505051" stop-color="#951B6F"/>
<stop offset="1" stop-color="#670A4A"/>
</linearGradient>
<linearGradient id="paint22_linear" x1="253.568" y1="97.2038" x2="276.491" y2="144.962" gradientUnits="userSpaceOnUse">
<stop offset="0.0354" stop-color="#9F19AB"/>
<stop offset="0.2438" stop-color="#AE25B1"/>
<stop offset="0.6455" stop-color="#D744BF"/>
<stop offset="1" stop-color="#FF63CE"/>
</linearGradient>
<linearGradient id="paint23_linear" x1="193.56" y1="126.006" x2="216.483" y2="173.765" gradientUnits="userSpaceOnUse">
<stop offset="0.0354" stop-color="#9F19AB"/>
<stop offset="0.2438" stop-color="#AE25B1"/>
<stop offset="0.6455" stop-color="#D744BF"/>
<stop offset="1" stop-color="#FF63CE"/>
</linearGradient>
<linearGradient id="paint24_linear" x1="175.446" y1="122.055" x2="204.563" y2="122.055" gradientUnits="userSpaceOnUse">
<stop offset="0.369792" stop-color="#F2F2F2"/>
<stop offset="0.505208" stop-color="white"/>
<stop offset="0.859375" stop-color="#DFDFDF"/>
</linearGradient>
<linearGradient id="paint25_linear" x1="213.946" y1="129.24" x2="91.2242" y2="143.534" gradientUnits="userSpaceOnUse">
<stop offset="0.00505051" stop-color="#951B6F"/>
<stop offset="1" stop-color="#670A4A"/>
</linearGradient>
<linearGradient id="paint26_linear" x1="92.176" y1="161.063" x2="217.958" y2="161.063" gradientUnits="userSpaceOnUse">
<stop offset="0.526042" stop-color="#F2F2F2"/>
<stop offset="1" stop-color="#DFDFDF"/>
</linearGradient>
<linearGradient id="paint27_linear" x1="92.176" y1="161.063" x2="217.958" y2="161.063" gradientUnits="userSpaceOnUse">
<stop stop-color="#E6E6E6"/>
<stop offset="0.526042" stop-color="#F2F2F2"/>
<stop offset="1" stop-color="#DFDFDF"/>
</linearGradient>
<linearGradient id="paint28_linear" x1="69.0693" y1="136.161" x2="133.977" y2="121.559" gradientUnits="userSpaceOnUse">
<stop stop-color="#C4C4C4"/>
<stop offset="0.2475" stop-color="#F2F2F2"/>
<stop offset="0.702" stop-color="#C4C4C4"/>
<stop offset="0.9464" stop-color="#BAC0EA"/>
<stop offset="1" stop-color="#BDC3EC"/>
</linearGradient>
<clipPath id="clip0">
<rect width="300" height="260" fill="white"/>
</clipPath>
</defs>
</svg>
